<svg id="Layer_1" enable-background="new 0 0 512 512" height="512" viewBox="0 0 512 512" width="512" xmlns="http://www.w3.org/2000/svg"><g><path d="m366.76 122.32h-266.793l29.638-96.294h206.987z" fill="#b9f5ff"/><path d="m336.592 26.026h-30.906l30.168 96.294h30.906z" fill="#8aeeff"/><path d="m216.853 26.026h30.905v96.295h-30.905z" fill="#ffde5c"/><g fill="#426778"><path d="m95.973 195.65c-4.142 0-7.5 3.358-7.5 7.5v37.925c0 4.142 3.358 7.5 7.5 7.5s7.5-3.358 7.5-7.5v-37.925c0-4.142-3.358-7.5-7.5-7.5z"/><path d="m408.467 195.433c-4.143 0-7.5 3.358-7.5 7.5v38.143c0 4.142 3.357 7.5 7.5 7.5s7.5-3.358 7.5-7.5v-38.143c0-4.142-3.358-7.5-7.5-7.5z"/></g><path d="m209.642 246.744h92.716v242.062h-92.716z" fill="#497285"/><path d="m271.453 246.744h30.905v242.062h-30.905z" fill="#426778"/><path d="m494.446 154.949v68.6h-50.53c-8.499-10.075-21.232-16.483-35.448-16.483s-26.949 6.408-35.448 16.483h-241.6c-8.499-10.075-21.232-16.483-35.449-16.483-14.216 0-26.949 6.408-35.448 16.483h-45.348v-97.229l84.794-6.82h266.786l106.788 12.063c11.909 1.341 20.903 11.406 20.903 23.386z" fill="#ffde5c"/><path d="m202.906 119.501h29.875v104.048h-29.875z" fill="#ffc736"/><path d="m473.548 131.56-106.788-12.059h-30.905l106.788 12.059c11.904 1.344 20.9 11.413 20.9 23.393v68.597h30.906v-68.597c-.002-11.98-8.998-22.049-20.901-23.393z" fill="#ffc736"/><g fill="#d2d5d4"><path d="m60.523 223.549c-6.809 8.066-10.91 18.502-10.91 29.875 0 .34 0 .69.01 1.03h-34.17c-8.53.001-15.453-6.922-15.453-15.452 0-4.265 1.731-8.128 4.533-10.92 2.792-2.802 6.655-4.533 10.92-4.533z"/><path d="m362.109 253.425c0 .34 0 .69.01 1.03h-219.799c.01-.34.01-.69.01-1.03 0-11.373-4.1-21.809-10.909-29.875h241.598c-6.81 8.066-10.91 18.501-10.91 29.875z"/><path d="m512 239.002c0 4.265-1.731 8.128-4.533 10.92-2.792 2.802-6.655 4.533-10.92 4.533h-41.733c.01-.34.01-.69.01-1.03 0-11.373-4.1-21.809-10.91-29.875h52.632c8.531-.001 15.454 6.922 15.454 15.452z"/></g><path d="m496.547 223.549h-30.905c8.534 0 15.453 6.918 15.453 15.453 0 8.534-6.918 15.453-15.453 15.453h30.905c8.534 0 15.453-6.918 15.453-15.453 0-8.534-6.918-15.453-15.453-15.453z" fill="#c7c9c8"/><path d="m496.547 512h-481.094c-8.535 0-15.453-6.918-15.453-15.453 0-8.534 6.918-15.453 15.453-15.453h481.095c8.534 0 15.453 6.918 15.453 15.453-.001 8.535-6.919 15.453-15.454 15.453z" fill="#d2d5d4"/><path d="m496.547 481.095h-30.905c8.534 0 15.453 6.918 15.453 15.453 0 8.534-6.918 15.453-15.453 15.453h30.905c8.534 0 15.453-6.918 15.453-15.453 0-8.535-6.918-15.453-15.453-15.453z" fill="#c7c9c8"/><circle cx="408.467" cy="253.425" fill="#d2d5d4" r="16.483"/><path d="m336.631 28.845h-207.7c-2.385 0-4.319-1.934-4.319-4.319v-4.834c0-10.875 8.817-19.692 19.693-19.692h176.953c10.876 0 19.692 8.817 19.692 19.692v4.834c0 2.385-1.933 4.319-4.319 4.319z" fill="#ffde5c"/><path d="m321.258 0h-30.905c10.876 0 19.692 8.817 19.692 19.692v4.834c0 2.385-1.934 4.319-4.319 4.319h30.905c2.385 0 4.319-1.934 4.319-4.319v-4.834c0-10.875-8.816-19.692-19.692-19.692z" fill="#ffc736"/><circle cx="95.973" cy="253.425" fill="#d2d5d4" r="16.483"/><circle cx="408.467" cy="434.736" fill="#497285" r="46.358"/><circle cx="408.467" cy="434.736" fill="#d2d5d4" r="16.483"/><circle cx="95.973" cy="434.736" fill="#497285" r="46.358"/><circle cx="95.973" cy="434.736" fill="#d2d5d4" r="16.483"/><path d="m22.387 157.539h-7.211v-61.019c0-2.713 2.2-4.913 4.913-4.913h25.2c2.713 0 4.913 2.2 4.913 4.913v33.204c0 15.361-12.454 27.815-27.815 27.815z" fill="#497285"/><path d="m494.447 200.278h-22.479c-13.757 0-24.909-11.152-24.909-24.909v-5.97c0-5.704 4.624-10.328 10.328-10.328h37.06z" fill="#b9f5ff"/><path d="m463.542 159.071v39.743c2.632.946 5.468 1.465 8.426 1.465h22.479v-41.207h-30.905z" fill="#8aeeff"/><g fill="#497285"><path d="m300.456 147.344h-15.215c-4.143 0-7.5 3.358-7.5 7.5s3.357 7.5 7.5 7.5h15.215c4.143 0 7.5-3.358 7.5-7.5s-3.357-7.5-7.5-7.5z"/><path d="m194.533 147.344h-15.215c-4.142 0-7.5 3.358-7.5 7.5s3.358 7.5 7.5 7.5h15.215c4.142 0 7.5-3.358 7.5-7.5s-3.358-7.5-7.5-7.5z"/></g></g></svg>