<svg xmlns="http://www.w3.org/2000/svg" width="32.25" height="30.028" viewBox="0 0 32.25 30.028">
    <path id="Icon_ionic-ios-funnel" data-name="Icon ionic-ios-funnel"
          d="M3.375,6.131h0a1.723,1.723,0,0,0,.394,1.1l10.7,12.642a1.723,1.723,0,0,1,.394,1.1V28.5a1.629,1.629,0,0,0,1.027,1.547l3.867,1.392a1.064,1.064,0,0,0,1.378-1.076V20.974a1.723,1.723,0,0,1,.394-1.1l10.7-12.642a1.723,1.723,0,0,0,.394-1.1h0a1.573,1.573,0,0,0-1.5-1.631H4.88A1.584,1.584,0,0,0,3.375,6.131Z"
          transform="translate(-1.875 -2.993)" fill="none" stroke="#5d6a78" stroke-width="3"/>
</svg>
