<svg xmlns="http://www.w3.org/2000/svg" width="26.48" height="26.48" viewBox="0 0 26.48 26.48">
    <path id="Icon_awesome-baby-carriage" data-name="Icon awesome-baby-carriage"
          d="M7.489.879A1.942,1.942,0,0,0,4.7.393,12.187,12.187,0,0,0,0,9.93H13.24ZM25.652,4.965H23.17a3.313,3.313,0,0,0-3.31,3.31v3.31H0a9.171,9.171,0,0,0,3.119,6.76,4.132,4.132,0,1,0,5.156,4,4.179,4.179,0,0,0-.228-1.3,13.388,13.388,0,0,0,7.075,0,4.035,4.035,0,0,0-.228,1.3,4.137,4.137,0,1,0,5.156-4,9.171,9.171,0,0,0,3.119-6.76V8.275h2.482a.83.83,0,0,0,.827-.827V5.792A.83.83,0,0,0,25.652,4.965ZM4.137,24a1.655,1.655,0,1,1,1.655-1.655A1.66,1.66,0,0,1,4.137,24Zm16.55-1.655a1.655,1.655,0,1,1-1.655-1.655A1.66,1.66,0,0,1,20.687,22.342Z"
          transform="translate(0 0.001)" fill="#b3c0c8"/>
</svg>
