<svg xmlns="http://www.w3.org/2000/svg" width="28.3" height="16.98" viewBox="0 0 28.3 16.98">
    <path id="Icon_awesome-couch" data-name="Icon awesome-couch"
          d="M7.075,11.575v2.83h14.15v-2.83a2.833,2.833,0,0,1,2.83-2.83H25.47A4.246,4.246,0,0,0,21.225,4.5H7.075A4.246,4.246,0,0,0,2.83,8.745H4.245A2.833,2.833,0,0,1,7.075,11.575Zm18.4-1.415H24.055a1.413,1.413,0,0,0-1.415,1.415V15.82H5.66V11.575A1.413,1.413,0,0,0,4.245,10.16H2.83a2.821,2.821,0,0,0-1.415,5.266v5.346a.71.71,0,0,0,.707.708h2.83a.71.71,0,0,0,.707-.708v-.708H22.64v.708a.71.71,0,0,0,.708.708h2.83a.71.71,0,0,0,.708-.708V15.426A2.821,2.821,0,0,0,25.47,10.16Z"
          transform="translate(0 -4.5)" fill="#b3c0c8"/>
</svg>
