<svg xmlns="http://www.w3.org/2000/svg" width="22.738" height="24.848" viewBox="0 0 22.738 24.848">
    <path id="Icon_metro-lamp" data-name="Icon metro-lamp"
          d="M19.508,19.394A6.791,6.791,0,0,1,17.7,11.083l-1.058-1.058-6.43,6.431c1.2.941,1.075,1.861-.324,2.757l8.59,8.589h4.21a.982.982,0,0,1,.981.981v.981h-4.6l-.011.011-.011-.011H11.9v-.98a.982.982,0,0,1,.981-.981h4.21l-8.1-8.1c-1.6.686-2.392.023-2.358-2.015.037-2.168.955-2.746,2.737-1.771l6.583-6.583L15.3,8.682a.98.98,0,0,1,0-1.386l2.08-2.08a.982.982,0,0,1,1.387,0L21.27,7.724a6.826,6.826,0,0,1,2.582-.511,6.748,6.748,0,0,1,5.513,2.653c.042.011-9.82,9.544-9.856,9.528Zm7.59-6.135s1.655,2.083,0,3.738-3.718-.02-3.718-.02Z"
          transform="translate(-6.626 -4.928)" fill="#a1b1c2"/>
</svg>
