<svg id="Capa_1" enable-background="new 0 0 512 512" height="512" viewBox="0 0 512 512" width="512" xmlns="http://www.w3.org/2000/svg"><g><path d="m512 234.099v246.901h-512v-246.901l6.599-25.499c2.401 1.5 59.5 38.401 157 54.6l17.401 2.999v64.801h150v-64.801l17.401-2.999c97.5-16.199 154.6-53.101 157-54.6z" fill="#407580"/><path d="m512 234.099-6.599-25.499c-2.401 1.5-59.5 38.401-157 54.6l-17.401 2.999v64.801h-75v150h256z" fill="#335e73"/><g><path d="m361 106h-30v-45h-150v45h-30v-75h210z" fill="#407580"/></g><g><path d="m0 91v143.099l6.599 4.501c2.401 1.5 59.5 38.401 157 54.6l17.401 2.999v-85.199h150v85.199l17.401-2.999c97.5-16.199 154.6-53.101 157-54.6l6.599-4.501v-143.099z" fill="#ff7366"/></g><g><path d="m361 106v-75h-105v30h75v45z" fill="#335e73"/><path d="m348.401 293.2c97.5-16.199 154.6-53.101 157-54.6l6.599-4.501v-143.099h-256v120h75v85.199z" fill="#e6455a"/></g><g><path d="m361 391h-210v-210h210z" fill="#e6f2f2"/></g><path d="m256 181h105v210h-105z" fill="#cfe6e6"/><path d="m301 271h-30v-30h-30v30h-30v30h30v30h30v-30h30z" fill="#ff7366"/><path d="m256 241v90h15v-30h30v-30h-30v-30z" fill="#e6455a"/></g></svg>