<svg xmlns="http://www.w3.org/2000/svg" width="12.908" height="11.136" viewBox="0 0 12.908 11.136">
    <path id="Icon_material-shopping-basket" data-name="Icon material-shopping-basket"
          d="M11.011,7.125,8.441,3.276a.582.582,0,0,0-.487-.246.573.573,0,0,0-.487.252L4.9,7.125H2.087a.588.588,0,0,0-.587.587.494.494,0,0,0,.023.158l1.49,5.439a1.167,1.167,0,0,0,1.127.857h7.628A1.179,1.179,0,0,0,12.9,13.31l1.49-5.439.018-.158a.588.588,0,0,0-.587-.587Zm-4.817,0,1.76-2.582,1.76,2.582Zm1.76,4.694a1.173,1.173,0,1,1,1.173-1.173A1.177,1.177,0,0,1,7.954,11.819Z"
          transform="translate(-1.5 -3.03)" fill="#a1b1c2"/>
</svg>
