<?xml version="1.0" standalone="no"?>
<!DOCTYPE svg PUBLIC "-//W3C//DTD SVG 20010904//EN"
 "http://www.w3.org/TR/2001/REC-SVG-20010904/DTD/svg10.dtd">
<svg version="1.0" xmlns="http://www.w3.org/2000/svg"
 width="1421.000000pt" height="451.000000pt" viewBox="0 0 1421.000000 451.000000"
 preserveAspectRatio="xMidYMid meet">
<metadata>
Created by potrace 1.16, written by Peter Selinger 2001-2019
</metadata>
<g transform="translate(0.000000,451.000000) scale(0.100000,-0.100000)"
fill="#000000" stroke="none">
<path d="M1797 4446 c-37 -13 -77 -32 -89 -42 -12 -11 -18 -13 -14 -6 7 11 4
12 -13 3 -11 -7 -21 -16 -21 -22 0 -6 -4 -8 -9 -4 -11 6 -146 -124 -137 -132
3 -3 -2 -12 -12 -20 -11 -10 -12 -12 -2 -8 12 5 12 4 -1 -7 -21 -18 -51 -77
-55 -109 -3 -25 -2 -26 59 -28 l62 -2 28 54 c15 29 49 73 75 98 l47 44 -44
-47 c-27 -29 -41 -51 -36 -59 5 -8 4 -10 -3 -5 -7 4 -19 -9 -32 -34 -23 -46
-14 -53 15 -13 11 15 47 57 79 93 74 81 71 78 61 60 -6 -11 -2 -10 12 3 36 32
128 57 206 57 89 0 160 -20 215 -60 23 -17 42 -28 42 -24 0 5 45 -46 104 -120
16 -20 31 -34 34 -31 7 7 -48 96 -57 91 -4 -3 -21 9 -37 27 -29 31 -29 32 -1
8 15 -14 27 -21 27 -17 0 18 34 -21 62 -71 30 -53 30 -53 80 -53 47 0 49 1 42
23 -3 12 -15 38 -25 58 -14 28 -15 36 -4 36 8 0 12 -4 10 -8 -7 -10 34 -99 46
-99 6 0 7 4 4 10 -3 5 -8 19 -10 31 -2 12 -10 28 -17 36 -7 8 -13 21 -14 29
-6 38 -128 176 -149 167 -7 -2 -16 1 -21 8 -5 8 -3 10 7 4 12 -7 12 -6 1 7 -8
10 -20 14 -29 11 -12 -5 -14 -3 -8 8 4 8 5 11 1 7 -5 -4 -26 4 -47 18 -21 13
-49 26 -61 28 -13 3 -23 5 -23 6 0 7 -60 13 -160 16 -105 3 -129 0 -188 -20z"/>
<path d="M5707 4255 c-22 -7 -48 -23 -59 -34 -10 -12 -23 -19 -28 -16 -11 7
-62 -54 -54 -66 3 -5 1 -9 -4 -9 -18 0 -42 -81 -42 -143 0 -69 15 -137 31
-137 6 0 7 -5 3 -12 -5 -7 -3 -8 5 -4 7 5 10 14 7 22 -8 22 2 17 15 -7 6 -12
7 -19 1 -15 -5 3 -12 0 -15 -8 -7 -19 3 -28 18 -16 8 7 19 1 36 -18 22 -24 22
-25 2 -8 -14 12 -23 14 -23 7 0 -7 -5 -9 -12 -5 -7 4 -5 -2 5 -14 11 -11 25
-18 33 -15 8 3 14 2 12 -3 -2 -5 2 -11 7 -13 6 -2 22 -12 37 -22 25 -18 74
-19 1678 -19 l1652 0 -6 -22 c-4 -13 -9 -30 -11 -38 -2 -8 -4 -17 -5 -20 -1
-3 -2 -8 -1 -12 0 -5 -3 -8 -7 -8 -5 0 -9 -7 -9 -15 0 -27 15 -16 27 21 7 19
14 34 16 32 10 -11 -272 -759 -293 -778 -6 -5 -6 -3 32 98 26 66 19 88 -8 25
-17 -42 -30 -75 -31 -83 -1 -3 -5 -11 -9 -17 -5 -7 -5 -13 0 -13 4 0 2 -4 -5
-9 -7 -4 -14 -18 -15 -29 -1 -12 -6 -22 -11 -22 -5 0 -7 -3 -4 -6 4 -3 -5 -30
-18 -60 -13 -30 -21 -54 -18 -54 4 0 1 -6 -5 -13 -6 -8 -8 -17 -4 -20 3 -4 0
-7 -7 -7 -7 0 -10 -3 -7 -7 4 -3 2 -12 -4 -20 -6 -7 -8 -13 -5 -13 4 0 1 -10
-6 -22 -7 -13 -11 -26 -10 -30 1 -5 -3 -8 -9 -8 -5 0 -8 -4 -5 -8 2 -4 -4 -28
-15 -52 -11 -24 -21 -53 -24 -64 -2 -12 -4 -23 -5 -26 -2 -3 -2 -8 -1 -12 0
-5 -4 -8 -10 -8 -5 0 -7 -4 -4 -10 3 -5 1 -10 -6 -10 -7 0 -9 -3 -6 -7 4 -3 2
-12 -4 -20 -6 -7 -9 -13 -6 -13 4 0 -7 -30 -23 -66 -17 -36 -32 -77 -34 -91
-3 -13 -10 -30 -15 -37 -6 -7 -8 -16 -4 -19 3 -4 0 -7 -7 -7 -7 0 -10 -3 -7
-7 4 -3 2 -12 -4 -20 -6 -7 -9 -13 -6 -13 3 0 -5 -25 -18 -55 -14 -30 -22 -55
-19 -55 4 0 1 -6 -5 -13 -6 -8 -8 -17 -4 -20 3 -4 1 -7 -5 -7 -7 0 -11 -3 -11
-7 1 -5 1 -10 -1 -13 -1 -3 -3 -16 -6 -29 -2 -14 -10 -31 -16 -39 -7 -8 -14
-24 -15 -35 -2 -12 -8 -26 -13 -31 -6 -6 -10 -16 -10 -22 0 -7 -5 -25 -11 -41
-6 -15 -11 -30 -11 -33 0 -3 -5 -14 -11 -25 -6 -11 -12 -23 -13 -27 -1 -5 -2
-9 -4 -10 -1 -2 -3 -10 -5 -18 -2 -8 -15 -41 -29 -72 -14 -32 -23 -58 -20 -58
4 0 1 -7 -6 -15 -7 -8 -9 -15 -5 -15 4 0 3 -6 -3 -12 -6 -7 -10 -17 -10 -21 0
-17 -9 -17 -23 0 -12 14 -12 16 0 8 10 -6 12 -4 7 4 -5 7 -11 10 -14 7 -3 -3
-11 -1 -19 5 -27 23 -127 37 -275 38 -84 1 -155 4 -157 7 -3 3 0 14 7 25 7 11
9 25 6 31 -5 8 -15 -3 -26 -28 -10 -21 -15 -28 -12 -14 11 40 45 110 38 78 -4
-19 -2 -28 7 -28 7 0 9 3 6 6 -3 4 -1 16 5 28 7 11 11 24 10 29 -1 4 3 7 10 7
6 0 8 3 5 7 -4 3 0 17 8 30 9 13 13 23 10 23 -3 0 1 14 10 30 9 17 13 30 9 30
-4 0 -1 7 6 15 7 8 9 15 5 15 -4 0 -2 6 4 13 6 8 8 17 4 20 -3 4 -1 7 6 7 7 0
10 4 6 9 -3 5 -1 12 5 16 6 4 8 11 5 16 -4 5 -1 9 4 9 6 0 10 3 9 8 -2 4 7 32
19 62 28 73 36 94 38 103 2 4 4 10 5 15 1 4 2 10 1 15 0 4 4 7 11 7 6 0 8 3 5
7 -4 3 0 17 8 30 9 13 13 23 11 23 -3 0 6 25 19 55 14 30 22 55 20 55 -3 0 2
11 11 25 9 14 13 25 9 25 -4 0 -3 6 3 13 6 6 11 15 11 20 1 4 1 8 2 10 0 1 2
9 4 17 2 8 13 42 25 74 24 72 27 183 5 226 -9 17 -15 32 -15 35 0 17 -1 18
-10 9 -7 -7 -6 -20 5 -40 24 -47 19 -159 -11 -254 -14 -45 -27 -80 -29 -78 -2
2 7 40 21 83 21 65 25 96 22 161 -3 71 -7 85 -32 118 -22 29 -26 40 -17 49 9
9 11 8 6 -4 -3 -9 1 -21 8 -28 12 -9 16 -8 20 3 4 9 -9 29 -34 50 -21 20 -41
36 -43 36 -9 0 0 -29 14 -46 14 -18 13 -18 -7 0 -13 10 -21 22 -18 25 6 11
-12 34 -32 39 -42 11 -188 10 -207 -1 -12 -6 -24 -10 -28 -9 -5 1 -8 -3 -8
-10 0 -6 -3 -8 -7 -5 -3 4 -12 -1 -20 -11 -8 -9 -11 -11 -7 -3 5 10 3 12 -7 6
-35 -20 -40 -27 -28 -42 10 -11 8 -12 -6 -6 -14 5 -17 3 -13 -9 4 -8 3 -20 -2
-27 -5 -10 -9 -9 -13 4 -4 9 -3 13 3 10 5 -3 7 1 4 9 -4 11 -12 7 -34 -17 -32
-37 -30 -69 3 -40 17 15 17 13 -3 -14 -26 -36 -32 -41 -24 -19 3 8 0 17 -7 22
-7 4 -10 3 -6 -3 4 -6 0 -14 -9 -17 -8 -3 -12 -10 -9 -16 3 -5 1 -10 -5 -10
-6 0 -8 -4 -5 -10 3 -5 1 -10 -5 -10 -6 0 -8 -4 -5 -10 3 -5 1 -10 -5 -10 -6
0 -8 -4 -5 -10 3 -5 1 -10 -5 -10 -6 0 -8 -4 -5 -10 3 -5 1 -10 -5 -10 -6 0
-8 -4 -5 -10 3 -5 1 -10 -6 -10 -7 0 -9 -3 -6 -7 4 -3 2 -12 -4 -20 -6 -7 -9
-13 -5 -13 4 0 -3 -18 -14 -40 -11 -22 -18 -40 -14 -40 4 0 1 -7 -6 -15 -7 -8
-9 -15 -5 -15 4 0 2 -6 -4 -13 -6 -8 -8 -17 -4 -20 3 -4 1 -7 -6 -7 -7 0 -10
-4 -6 -9 3 -5 1 -12 -5 -16 -6 -4 -8 -11 -5 -16 4 -5 1 -9 -6 -9 -7 0 -9 -3
-6 -7 4 -3 2 -12 -3 -19 -6 -6 -12 -20 -15 -30 -2 -11 -10 -35 -19 -55 -8 -20
-12 -39 -9 -43 4 -3 1 -6 -6 -6 -7 0 -10 -4 -6 -9 3 -5 1 -12 -5 -16 -6 -4 -8
-11 -5 -16 4 -5 1 -9 -5 -9 -6 0 -9 -4 -5 -9 3 -5 1 -12 -5 -16 -6 -4 -8 -11
-5 -16 4 -5 2 -9 -3 -9 -5 0 -9 -6 -9 -12 0 -7 -10 -37 -22 -65 -11 -29 -17
-53 -13 -53 4 0 1 -4 -6 -9 -7 -4 -14 -18 -15 -29 -1 -12 -5 -22 -10 -22 -4 0
-6 -4 -2 -9 3 -5 1 -12 -5 -16 -6 -4 -8 -11 -5 -16 4 -5 1 -9 -6 -9 -7 0 -9
-3 -6 -6 3 -4 1 -16 -5 -28 -7 -11 -13 -23 -13 -26 0 -3 -6 -15 -13 -27 -7
-13 -11 -23 -8 -23 14 0 -122 -132 -139 -135 -11 -2 -21 -4 -22 -5 -2 -2 -6
-3 -10 -4 -5 -1 -14 -5 -21 -10 -21 -13 -164 -17 -179 -4 -7 6 -13 7 -13 2 0
-5 -7 4 -15 20 -10 18 -13 42 -10 60 8 45 10 50 18 64 5 6 6 12 2 12 -3 0 0
10 7 23 7 12 13 25 14 30 1 4 3 10 4 15 1 4 2 10 1 15 0 4 4 7 11 7 6 0 9 3 5
6 -3 4 0 19 8 35 8 15 16 36 18 46 2 10 9 28 15 41 7 12 10 22 6 22 -3 0 -1 6
5 13 6 8 8 17 4 20 -3 4 0 7 7 7 7 0 10 3 7 7 -4 3 0 17 8 30 9 13 13 23 10
23 -3 0 4 18 15 40 11 21 21 47 23 57 2 10 9 28 15 41 7 12 10 22 6 22 -3 0
-1 6 5 13 6 8 8 17 4 20 -3 4 0 7 7 7 7 0 10 3 7 6 -3 4 -1 16 5 28 7 11 13
26 14 31 2 6 12 33 23 61 11 29 17 54 14 58 -4 3 0 6 7 6 7 0 10 3 7 6 -3 4
-1 16 5 28 7 11 13 23 13 26 1 3 7 30 14 61 12 50 12 86 -1 187 -1 6 -5 12
-10 12 -5 0 -7 4 -4 9 8 12 -53 87 -69 83 -7 -1 -23 10 -34 24 -12 15 -21 23
-21 19 0 -4 -7 -1 -17 6 -23 19 -189 19 -223 -1 -14 -8 -29 -13 -33 -12 -4 1
-10 -5 -13 -13 -3 -8 -10 -13 -14 -10 -5 3 -18 -7 -29 -21 -12 -15 -21 -23
-21 -19 0 5 -9 0 -19 -9 -11 -10 -17 -24 -14 -33 4 -11 12 -9 34 13 16 15 26
32 22 37 -4 6 -1 7 7 2 9 -6 11 -4 5 5 -6 9 -4 11 4 5 9 -5 2 -18 -25 -46 -26
-27 -41 -36 -49 -29 -9 7 -16 5 -25 -5 -7 -8 -10 -15 -6 -15 3 0 -3 -9 -14
-20 -12 -12 -18 -25 -15 -30 4 -6 1 -10 -5 -10 -6 0 -8 -4 -5 -10 3 -5 1 -10
-5 -10 -6 0 -9 -4 -6 -9 3 -5 -1 -12 -10 -15 -9 -4 -14 -9 -12 -12 3 -3 -10
-42 -29 -87 -19 -45 -35 -90 -36 -99 -1 -10 -6 -18 -11 -18 -5 0 -6 -3 -3 -7
4 -3 0 -17 -8 -30 -9 -13 -13 -23 -11 -23 3 0 -6 -25 -19 -55 -14 -30 -26 -58
-26 -63 -1 -4 -8 -20 -15 -37 -7 -16 -10 -33 -8 -37 3 -5 0 -8 -6 -8 -6 0 -9
-4 -5 -9 3 -5 1 -12 -5 -16 -6 -4 -8 -11 -5 -16 4 -5 1 -9 -6 -9 -7 0 -10 -3
-7 -6 4 -3 -5 -30 -18 -60 -13 -30 -21 -54 -18 -54 4 0 2 -6 -3 -12 -16 -21
-23 -47 -14 -52 5 -3 16 16 26 42 10 26 43 115 75 197 31 83 65 172 75 198 9
27 19 47 21 45 5 -6 -220 -605 -231 -617 -9 -9 -5 9 15 59 23 58 24 70 9 70
-5 0 -7 -4 -4 -10 3 -5 1 -10 -4 -10 -6 0 -10 -3 -10 -7 1 -5 0 -10 -1 -13 -1
-3 -3 -12 -5 -20 -2 -8 -18 -49 -35 -90 -17 -41 -33 -86 -36 -100 -2 -14 -11
-50 -19 -80 -16 -59 -21 -139 -5 -90 4 14 9 18 9 10 15 -170 23 -215 53 -286
18 -43 52 -98 76 -125 24 -27 38 -50 32 -54 -9 -6 -14 0 -12 16 1 4 -7 14 -17
23 -15 14 -19 14 -24 3 -3 -9 13 -29 41 -53 25 -21 42 -32 38 -24 -4 8 0 6 8
-4 9 -11 16 -16 16 -12 0 4 12 -1 28 -12 56 -39 86 -42 401 -42 303 0 306 0
359 25 28 13 52 29 52 35 0 6 4 9 9 5 5 -3 13 0 17 6 5 8 3 9 -6 4 -9 -6 -11
-4 -6 4 5 7 13 10 20 8 6 -3 21 2 31 10 17 14 18 15 2 9 -10 -3 -15 -2 -12 3
11 18 45 7 73 -24 l27 -30 -31 28 c-25 22 -33 25 -37 14 -3 -9 3 -23 14 -33
10 -9 19 -13 19 -9 0 5 7 0 16 -11 8 -10 13 -12 9 -4 -4 8 1 6 9 -4 9 -11 16
-16 16 -12 0 4 7 0 16 -9 15 -14 56 -16 383 -13 337 3 369 5 401 22 19 10 38
24 42 30 4 6 8 7 8 2 0 -6 7 -1 16 10 8 10 12 12 8 4 -5 -10 0 -9 14 4 22 19
23 19 50 -7 16 -16 32 -23 40 -19 8 6 1 18 -25 43 -20 19 -34 27 -31 19 4 -11
0 -16 -13 -16 -16 0 -17 2 -4 16 28 31 15 34 -17 4 l-32 -29 29 36 c25 29 31
33 39 20 5 -9 24 -32 43 -52 22 -24 31 -39 24 -44 -6 -3 -9 -11 -5 -16 3 -5
10 -7 15 -4 5 4 9 1 9 -5 0 -6 4 -9 9 -5 5 3 12 1 16 -5 8 -13 209 -13 254 0
18 5 40 17 48 27 8 10 11 12 8 5 -11 -21 32 4 44 26 6 9 11 13 11 8 0 -5 6 -3
14 4 8 6 12 18 9 26 -5 12 -10 11 -32 -8 l-26 -23 26 30 c14 17 33 40 41 52
l15 23 22 -24 c17 -18 19 -26 10 -31 -7 -5 -10 -4 -5 3 4 7 -1 9 -15 7 -18 -4
-19 -2 -7 12 11 14 11 15 -2 11 -8 -3 -14 -12 -14 -21 1 -9 -3 -14 -9 -10 -6
3 -7 1 -3 -6 6 -8 12 -9 20 -2 9 8 19 4 35 -13 13 -14 30 -22 37 -19 9 3 14 0
12 -8 -2 -8 3 -13 10 -12 6 2 12 -2 12 -7 0 -5 3 -9 8 -8 4 1 32 -11 62 -25
l55 -27 261 0 c143 0 264 3 268 7 3 4 16 8 27 10 26 4 96 40 104 53 4 6 11 7
17 4 7 -5 8 -2 3 6 -6 10 -4 12 8 7 11 -4 23 3 37 20 11 14 20 22 20 17 1 -5
10 2 20 15 11 13 20 19 20 15 0 -5 33 25 74 65 45 44 72 79 69 88 -4 11 -8 11
-22 1 -9 -7 -5 0 8 14 20 23 41 29 41 12 0 -3 -5 -2 -12 2 -7 5 -8 3 -3 -6 6
-9 4 -11 -5 -5 -9 6 -11 4 -6 -4 6 -9 13 -8 27 5 22 19 25 29 7 18 -9 -5 -9
-2 1 9 16 20 17 21 18 5 1 -11 14 -71 26 -124 2 -7 8 -18 15 -26 6 -8 9 -18 5
-21 -3 -4 -1 -7 6 -7 7 0 10 -4 7 -9 -8 -12 73 -103 85 -95 5 3 9 0 9 -6 0 -6
5 -8 10 -5 5 3 10 1 10 -5 0 -6 5 -8 10 -5 6 3 10 2 10 -4 0 -5 25 -19 55 -30
53 -20 76 -21 409 -21 303 0 359 2 392 16 22 9 42 21 46 28 4 6 8 7 8 2 0 -6
7 -1 16 10 8 10 13 12 9 4 -4 -8 1 -6 9 4 9 11 16 16 16 11 0 -4 9 0 20 10 20
18 21 18 45 -5 14 -13 25 -20 25 -15 0 5 7 0 15 -11 8 -10 15 -15 15 -10 0 5
8 2 18 -7 10 -9 28 -18 40 -20 12 -2 25 -6 28 -10 4 -4 173 -7 375 -7 315 0
374 2 409 16 22 9 40 20 40 26 0 5 5 6 10 3 6 -3 10 -1 10 5 0 6 5 8 12 4 7
-5 8 -3 3 6 -6 10 -4 12 7 7 10 -3 25 4 39 19 12 13 18 24 14 24 -5 0 1 7 13
16 12 8 20 19 17 24 -3 4 2 11 11 14 9 4 14 9 11 13 -4 3 -2 15 4 25 19 35 29
138 18 187 -5 25 -10 52 -11 59 -1 6 -5 12 -10 12 -5 0 -7 4 -3 9 3 5 1 12 -4
15 -5 4 -13 1 -17 -5 -4 -7 -3 -9 2 -6 5 3 10 -2 11 -11 1 -9 8 -41 15 -70 10
-42 10 -65 -1 -120 -7 -37 -13 -75 -14 -84 -1 -9 -6 -16 -12 -15 -5 1 -9 -6
-9 -16 1 -10 -1 -16 -4 -12 -3 3 -24 -12 -46 -32 l-40 -38 43 48 c52 59 70
100 78 180 7 78 -9 137 -50 185 -24 28 -25 32 -5 14 20 -19 27 -20 31 -8 3 8
-3 22 -14 32 -10 9 -19 14 -19 10 0 -3 -12 2 -27 11 -44 29 -118 41 -267 42
-77 1 -142 4 -144 6 -2 2 1 12 7 23 5 10 12 30 15 43 2 13 26 76 51 139 26 63
48 122 50 130 2 8 22 61 45 118 23 56 43 110 45 120 2 9 17 49 33 87 l29 70
134 6 c127 7 155 10 200 24 17 6 16 1 -9 -42 -33 -55 -53 -109 -45 -117 4 -3
0 -6 -7 -6 -7 0 -11 -3 -7 -6 3 -3 1 -18 -5 -33 -5 -14 -11 -33 -13 -41 -2 -8
-10 -44 -18 -80 -37 -158 -31 -384 15 -527 12 -37 21 -71 20 -75 -1 -5 3 -8
10 -8 6 0 9 -3 5 -6 -3 -4 13 -43 36 -88 31 -59 64 -103 124 -164 46 -46 87
-81 92 -78 5 3 12 -1 15 -9 3 -8 9 -14 13 -13 4 1 29 -7 54 -19 83 -37 139
-43 437 -43 300 0 336 4 435 48 26 12 49 20 52 19 2 -1 11 7 20 18 9 11 14 13
10 5 -4 -8 3 -4 15 10 12 14 19 18 15 10 -4 -8 1 -6 10 5 9 11 18 19 20 18 13
-7 16 -1 6 10 -8 11 -6 18 12 33 l22 19 -18 -21 c-15 -18 -16 -22 -3 -27 8 -3
20 1 26 9 7 8 9 14 5 14 -4 0 -2 7 5 15 7 8 9 15 4 15 -4 0 9 18 31 40 27 27
42 37 50 30 13 -11 50 22 38 33 -3 4 -1 7 5 7 15 0 73 80 67 90 -3 4 2 11 11
14 8 3 12 10 9 16 -3 5 -1 10 5 10 6 0 8 5 5 10 -3 6 -2 10 4 10 8 0 58 92 66
123 2 4 4 10 5 15 1 4 2 10 1 15 0 4 4 7 11 7 6 0 9 3 6 6 -3 3 8 40 24 82 16
42 34 100 39 127 5 28 12 61 16 75 3 14 8 97 10 184 6 184 -10 288 -60 396
-17 36 -29 68 -29 73 1 4 -3 7 -9 7 -5 0 -7 5 -4 10 3 6 1 10 -4 10 -6 0 -10
4 -9 9 9 32 -180 234 -210 224 -7 -3 -11 1 -10 8 2 7 -3 13 -10 14 -7 0 -17 6
-21 14 -5 7 -14 10 -20 7 -6 -4 -11 -2 -11 4 0 6 -4 8 -10 5 -5 -3 -10 -1 -10
5 0 6 -4 9 -9 6 -5 -3 -12 1 -15 10 -3 8 -10 13 -15 9 -5 -3 -12 -1 -16 5 -4
6 -11 8 -16 5 -5 -4 -9 -1 -9 6 0 7 -2 10 -5 7 -3 -3 -34 3 -68 14 -131 41
-372 33 -509 -16 -36 -13 -69 -22 -72 -18 -3 3 -6 0 -6 -7 0 -7 -4 -9 -10 -6
-5 3 -10 1 -10 -5 0 -6 -4 -9 -9 -5 -5 3 -12 1 -16 -5 -4 -6 -11 -8 -16 -5 -5
4 -9 1 -9 -5 0 -6 -4 -9 -9 -6 -5 3 -14 -1 -21 -9 -7 -8 -16 -12 -21 -9 -5 3
-9 0 -9 -6 0 -6 -4 -9 -9 -5 -5 3 -13 0 -17 -6 -5 -8 -3 -9 6 -4 9 6 11 4 6
-4 -5 -7 -14 -10 -22 -7 -7 3 -27 -8 -44 -24 -17 -16 -34 -30 -38 -32 -4 -2
-6 -7 -4 -12 2 -5 -4 -6 -11 -3 -9 3 -31 -11 -53 -34 -21 -21 -42 -39 -46 -39
-4 0 -8 16 -8 35 0 41 -28 115 -43 115 -6 0 -7 3 -4 7 11 10 -33 52 -49 46 -8
-3 -17 2 -20 11 -3 9 -10 13 -15 10 -5 -3 -9 0 -9 6 0 6 -4 8 -10 5 -5 -3 -10
-2 -10 3 0 10 1 10 -108 18 -46 4 -79 10 -72 14 6 4 11 10 11 13 0 4 8 27 19
52 11 25 29 65 40 90 11 25 20 47 20 50 0 3 1 7 1 10 1 3 2 8 3 13 1 4 7 28
15 53 8 29 11 73 8 120 -7 95 -8 97 -24 103 -8 3 -11 10 -8 16 3 5 1 10 -5 10
-6 0 -9 4 -6 8 3 5 -10 24 -29 42 -19 19 -35 30 -35 25 0 -5 -7 0 -16 11 -8
10 -13 12 -9 4 4 -9 1 -8 -8 3 -9 10 -17 17 -19 16 -1 -2 -24 3 -51 10 -38 11
-58 11 -105 1 -31 -6 -63 -12 -69 -13 -7 0 -13 -5 -13 -10 0 -6 -3 -7 -7 -4
-3 4 -12 -1 -20 -11 -8 -9 -11 -11 -8 -4 6 11 3 12 -14 3 -11 -7 -21 -16 -21
-22 0 -6 -4 -8 -9 -5 -9 6 -85 -67 -87 -84 -1 -5 -2 -15 -3 -21 0 -5 -7 -7
-13 -3 -7 4 -10 4 -6 -1 4 -4 0 -14 -8 -22 -8 -8 -12 -19 -9 -24 4 -5 1 -9 -5
-9 -6 0 -8 -5 -5 -10 3 -5 1 -10 -5 -10 -6 0 -8 -4 -5 -10 3 -5 1 -10 -6 -10
-7 0 -9 -3 -6 -7 4 -3 0 -17 -8 -30 -9 -13 -13 -23 -11 -23 3 0 -8 -31 -24
-70 -16 -38 -27 -70 -24 -70 3 0 -1 -10 -8 -22 -7 -13 -13 -25 -14 -28 -1 -6
-8 -24 -33 -90 l-17 -45 -110 -7 c-94 -5 -133 -10 -154 -18 -3 -1 -8 -2 -12
-1 -5 0 -8 -4 -8 -10 0 -5 -4 -7 -10 -4 -5 3 -10 2 -10 -4 0 -6 -7 -8 -15 -5
-8 4 -17 -1 -21 -10 -3 -9 -10 -13 -15 -10 -5 3 -9 0 -9 -6 0 -6 -4 -9 -8 -6
-11 7 -84 -68 -76 -77 4 -4 2 -7 -4 -7 -7 0 -11 -3 -10 -7 1 -5 -3 -17 -9 -29
-12 -21 -14 -28 -28 -112 -8 -48 11 -172 27 -172 5 0 7 -4 4 -9 -7 -10 41 -72
52 -69 4 1 17 -4 30 -11 26 -14 47 -19 113 -28 l47 -5 -23 -57 c-13 -31 -30
-72 -38 -92 -9 -20 -13 -39 -10 -43 4 -3 0 -6 -7 -6 -7 0 -10 -3 -7 -7 4 -3 2
-12 -4 -20 -6 -7 -8 -13 -4 -13 4 0 0 -11 -9 -25 -9 -14 -14 -25 -12 -25 3 0
-9 -32 -25 -71 -17 -39 -31 -80 -32 -90 -1 -10 -5 -19 -10 -19 -4 0 -5 -5 -2
-10 3 -5 1 -10 -6 -10 -7 0 -9 -3 -6 -7 4 -3 2 -12 -4 -20 -6 -7 -9 -13 -6
-13 4 0 -7 -29 -23 -65 -16 -36 -30 -73 -32 -82 -2 -10 -6 -20 -10 -23 -4 -3
-3 -12 1 -19 6 -9 19 14 40 70 18 46 36 93 41 104 9 17 9 16 4 -5 -8 -32 -94
-253 -102 -260 -3 -3 -2 3 1 13 16 43 19 67 8 67 -6 0 -13 -11 -17 -25 -4 -17
-10 -23 -18 -16 -6 5 -31 12 -56 17 -25 4 -48 9 -52 10 -5 1 -71 2 -148 3
-127 1 -140 3 -137 18 2 15 36 109 83 228 4 11 8 22 8 25 1 3 7 14 13 25 6 11
11 24 11 28 -1 4 15 49 35 100 38 97 48 126 53 142 1 6 20 53 41 105 22 52 40
97 40 100 0 13 26 86 34 94 12 13 11 26 0 26 -5 0 -21 -32 -36 -71 -15 -38
-29 -68 -31 -66 -2 2 7 32 21 67 36 92 34 96 -34 81 -2 -1 2 -7 8 -15 9 -10 7
-17 -6 -27 -16 -13 -17 -12 -5 2 22 28 -13 31 -42 4 -15 -14 -29 -25 -31 -25
-3 0 -6 0 -7 -1 -59 -18 -150 -17 -198 1 -3 1 -8 2 -12 1 -5 0 -8 4 -8 10 0 5
-4 7 -10 4 -5 -3 -10 -1 -10 6 0 7 -3 9 -7 6 -3 -4 -12 1 -20 11 -9 11 -12 12
-8 2 4 -8 -4 -2 -17 14 -19 22 -27 26 -33 16 -6 -9 -4 -11 5 -5 9 6 11 4 5 -5
-6 -9 -4 -11 6 -5 8 5 11 4 6 0 -4 -5 1 -18 10 -29 10 -12 -2 -3 -26 19 -23
22 -47 49 -53 60 -5 11 1 7 14 -9 20 -24 26 -26 31 -13 4 10 -3 24 -21 37 -15
12 -22 19 -15 16 8 -5 8 0 0 19 -14 29 -27 33 -28 8 0 -15 -2 -15 -8 2 -5 11
-7 23 -4 28 2 4 -3 7 -11 7 -10 0 -16 -9 -16 -22 0 -23 -90 -271 -97 -265 -2
2 17 58 42 123 25 65 45 126 45 133 0 22 -20 -1 -25 -28 -2 -13 -9 -29 -16
-37 -6 -8 -8 -14 -4 -14 4 0 2 -6 -4 -13 -6 -8 -8 -17 -4 -20 3 -4 0 -7 -7 -7
-7 0 -11 -3 -7 -6 3 -3 -5 -30 -18 -60 -13 -30 -21 -54 -18 -54 3 0 0 -7 -7
-15 -7 -8 -9 -15 -5 -15 4 0 2 -6 -4 -13 -6 -8 -8 -17 -4 -20 3 -4 0 -7 -7 -7
-7 0 -10 -3 -7 -7 4 -3 0 -17 -8 -30 -9 -13 -13 -23 -10 -23 2 0 -7 -26 -21
-57 -13 -32 -26 -65 -27 -75 -2 -10 -6 -21 -10 -24 -4 -4 -7 44 -8 107 -1 129
-3 147 -26 244 -10 39 -18 73 -19 78 -1 4 -3 9 -4 12 -1 3 -3 8 -5 13 -14 51
-50 126 -70 145 -11 11 -13 17 -5 13 9 -5 9 -2 -2 7 -10 8 -15 16 -13 19 3 3
-1 11 -9 17 -11 9 -16 9 -22 0 -5 -8 -3 -9 6 -4 9 5 11 4 6 -4 -4 -6 1 -23 12
-39 37 -52 83 -155 105 -231 18 -66 21 -106 23 -304 1 -205 0 -233 -18 -275
-10 -26 -17 -36 -14 -22 34 159 33 470 -2 601 -24 89 -75 195 -128 265 -20 27
-28 41 -17 31 18 -15 21 -16 26 -3 7 17 -119 140 -134 131 -5 -4 -9 -1 -9 6 0
7 -3 9 -7 6 -3 -4 -12 1 -20 11 -10 11 -12 12 -8 2 4 -10 2 -9 -8 2 -8 10 -17
15 -20 11 -4 -3 -7 -1 -7 6 0 7 -4 9 -10 6 -5 -3 -10 -1 -10 6 0 7 -3 10 -6 6
-4 -3 -25 2 -48 11 -31 13 -71 17 -162 17 l-121 0 18 43 c10 23 16 42 13 42
-2 0 1 10 8 23 6 12 13 27 14 32 1 6 21 57 44 115 23 58 43 112 45 120 2 8 22
60 45 115 22 55 41 101 40 103 0 1 0 3 1 5 0 1 2 9 4 17 2 8 22 60 45 115 23
55 43 108 45 117 2 10 21 60 41 110 32 79 38 108 42 188 4 97 -12 170 -38 170
-6 0 -9 3 -6 8 2 4 -2 15 -9 25 -11 16 -13 16 -19 2 -4 -11 -2 -14 6 -9 7 5 8
3 3 -6 -6 -9 -4 -11 5 -5 8 5 11 4 6 -3 -3 -6 3 -26 14 -45 25 -43 35 -119 21
-172 -9 -36 -9 -35 -4 20 7 77 -9 133 -52 189 -23 30 -30 48 -23 52 7 5 8 3 3
-6 -5 -9 -4 -11 4 -6 9 6 9 11 1 22 -7 7 -15 13 -18 11 -4 -1 -20 7 -36 18
-18 12 -57 22 -100 27 -39 4 -903 7 -1921 7 -1542 0 -1856 -2 -1888 -14z
m2796 -2 c-497 -2 -1309 -2 -1805 0 -497 1 -91 2 902 2 993 0 1399 -1 903 -2z
m-285 -540 c-449 -2 -1187 -2 -1640 0 -453 1 -85 2 817 2 902 0 1272 -1 823
-2z m1172 -1454 c8 -2 21 -11 28 -19 12 -13 13 -13 6 0 -4 8 6 2 22 -15 16
-16 28 -32 27 -34 -2 -3 5 -16 14 -30 27 -41 22 -185 -10 -283 -13 -42 -22
-80 -19 -83 3 -3 0 -5 -7 -5 -7 0 -9 -4 -6 -10 3 -5 1 -10 -5 -10 -6 0 -9 -4
-5 -9 3 -5 -1 -16 -9 -24 -8 -8 -12 -17 -9 -21 4 -3 0 -6 -7 -6 -7 0 -11 -3
-7 -6 3 -4 -7 -25 -23 -48 -17 -26 -25 -47 -20 -55 5 -9 10 -10 14 -2 4 6 4
16 0 23 -4 7 -3 8 5 4 8 -5 26 23 56 86 24 51 44 89 44 85 2 -17 -88 -192
-111 -217 -13 -14 -19 -20 -15 -13 10 15 0 36 -14 27 -5 -3 -8 -8 -7 -12 2 -4
-23 -33 -56 -66 -32 -32 -56 -53 -52 -47 5 7 1 9 -8 5 -9 -3 -16 -10 -16 -16
0 -5 -4 -6 -10 -3 -5 3 -10 2 -10 -3 0 -6 -35 -10 -80 -10 -44 0 -80 4 -80 9
0 4 -7 6 -15 3 -8 -4 -17 1 -21 10 -3 9 -10 14 -14 11 -4 -3 -10 1 -13 9 -9
22 -65 58 -72 46 -4 -6 -2 -9 3 -8 6 2 11 -1 12 -7 0 -5 11 -21 23 -35 12 -14
-3 -2 -32 26 -46 45 -52 54 -42 70 11 18 12 18 6 -2 -3 -13 1 -26 10 -34 15
-13 20 -5 16 27 -1 6 8 35 20 65 11 29 22 60 24 68 2 8 26 70 54 138 27 67 48
122 45 122 -2 0 9 27 26 60 17 33 30 63 29 66 0 3 8 12 18 21 10 8 12 12 3 8
-8 -4 -3 3 12 16 20 17 25 28 19 38 -7 11 -15 4 -36 -27 -15 -22 -24 -45 -21
-50 3 -5 -1 -9 -9 -9 -23 0 20 68 78 124 27 26 46 41 41 33 -5 -8 -9 -19 -9
-25 -1 -5 -7 -9 -14 -7 -7 1 -10 -2 -5 -9 5 -8 3 -9 -6 -4 -9 6 -11 4 -5 -5 6
-9 4 -11 -5 -5 -9 6 -11 4 -5 -4 7 -13 39 9 75 52 8 9 26 19 39 22 13 2 26 7
30 10 6 7 83 2 111 -6z m3926 -54 c18 -11 24 -12 18 -4 -4 8 8 -2 27 -21 19
-19 33 -37 31 -39 -1 -2 5 -12 14 -22 59 -65 53 -283 -11 -409 -14 -28 -23
-50 -21 -50 3 0 -6 -12 -19 -26 -14 -15 -22 -30 -19 -35 3 -5 1 -9 -4 -9 -5 0
-26 -21 -46 -47 -20 -25 -36 -42 -36 -38 0 5 -7 0 -16 -11 -8 -10 -13 -12 -9
-4 4 8 -1 6 -9 -4 -9 -11 -16 -16 -16 -12 0 4 -6 4 -12 -1 -7 -4 -17 -8 -23
-10 -5 -1 -21 -5 -35 -8 -39 -10 -153 -6 -167 5 -2 2 -7 4 -13 5 -5 1 -12 3
-15 4 -3 0 -8 1 -11 0 -3 0 -12 8 -21 18 -8 10 -11 11 -7 3 4 -8 -8 1 -27 20
-19 19 -33 36 -32 38 1 2 -5 19 -13 37 -26 63 -11 279 22 333 8 12 12 22 9 22
-3 0 11 23 31 51 20 28 30 48 22 44 -7 -3 -1 3 14 15 30 23 30 61 -1 38 -9 -7
-2 3 14 22 17 19 31 36 31 38 1 2 4 -4 8 -13 4 -11 2 -14 -6 -9 -7 5 -8 3 -3
-6 6 -9 4 -11 -5 -5 -9 6 -11 4 -5 -5 6 -9 4 -11 -5 -5 -9 6 -11 4 -5 -4 5 -9
14 -6 34 11 14 13 28 25 31 27 3 2 -2 2 -11 -1 -23 -9 -20 19 5 39 l21 18 -19
-23 c-19 -22 -19 -22 3 -19 12 2 35 15 51 29 17 15 30 25 30 23 0 -1 17 4 38
11 48 18 153 12 188 -11z"/>
<path d="M1170 4011 c-8 -5 -42 -15 -75 -22 -33 -7 -76 -22 -95 -33 -19 -11
-41 -21 -49 -23 -9 -1 -21 -9 -27 -17 -6 -9 -13 -13 -16 -10 -3 3 -15 -6 -26
-20 -10 -14 -22 -23 -24 -20 -8 8 -108 -108 -102 -118 3 -4 0 -8 -6 -8 -33 0
-100 -221 -100 -328 0 -48 16 -154 27 -182 3 -8 7 -20 8 -26 8 -33 115 -165
115 -140 0 4 7 0 16 -8 8 -9 20 -14 25 -11 5 4 9 1 9 -5 0 -6 5 -8 10 -5 6 3
10 1 10 -5 0 -6 5 -8 10 -5 6 3 10 2 10 -3 0 -5 6 -9 13 -10 6 0 50 -8 97 -17
69 -13 121 -15 280 -10 107 4 221 8 253 10 31 2 57 3 57 1 0 -2 -8 -10 -17
-17 -15 -12 -16 -12 -8 1 4 8 -15 -7 -43 -34 -31 -30 -48 -54 -45 -63 4 -11
31 9 92 69 58 56 51 47 -23 -29 -94 -96 -126 -121 -126 -97 0 3 5 2 12 -2 7
-5 8 -3 3 6 -6 9 -4 11 5 5 9 -6 11 -4 5 5 -6 9 -4 11 5 5 9 -6 11 -4 5 5 -6
9 -4 11 5 5 9 -6 11 -4 5 5 -6 9 -4 11 5 5 9 -6 11 -4 5 5 -5 8 -34 -15 -96
-76 -89 -88 -100 -102 -76 -88 6 4 9 4 6 0 -4 -4 -252 -6 -553 -6 -300 0 -559
-3 -574 -7 -15 -5 227 -10 538 -13 l565 -5 -562 -3 c-367 -1 -563 -5 -563 -12
0 -6 36 -10 88 -10 130 0 436 -12 442 -17 3 -3 -116 -2 -265 1 -148 3 -259 2
-245 -3 14 -4 88 -9 165 -10 112 -1 541 -19 816 -34 35 -1 53 3 70 18 13 10
-5 -12 -41 -50 -36 -38 -66 -71 -66 -73 -1 -1 -4 4 -8 13 -4 11 -2 14 6 9 7
-5 8 -3 3 6 -6 9 -4 11 5 5 9 -6 11 -4 5 5 -6 9 -4 11 5 5 9 -6 11 -4 5 5 -6
9 -4 11 5 5 9 -6 11 -4 5 5 -6 9 -4 11 5 5 9 -6 11 -4 5 5 -6 9 -4 11 5 5 9
-6 11 -4 5 5 -6 9 -4 11 5 5 9 -6 11 -4 5 4 -5 9 -25 -4 -66 -45 l-58 -58
-203 0 c-195 1 -198 0 -63 -6 l140 -6 -142 -2 c-82 -1 -143 -6 -143 -11 0 -6
19 -12 43 -14 l42 -4 -43 -1 c-67 -3 -40 -22 31 -22 35 0 101 -5 147 -11 47
-6 93 -11 102 -12 13 -1 14 -4 6 -14 -13 -17 -21 -17 -12 0 4 6 -7 -1 -24 -17
-18 -16 -28 -34 -25 -43 4 -11 21 -1 62 39 31 29 13 9 -38 -44 -52 -54 -97
-95 -100 -92 -3 2 -25 -15 -50 -38 -41 -39 -40 -37 9 17 29 33 55 62 57 65 2
2 1 -4 -3 -15 -7 -18 -6 -18 9 -6 9 7 14 18 10 24 -4 6 -1 7 7 2 9 -6 11 -4 5
5 -6 9 -4 11 5 5 9 -6 11 -4 5 5 -6 9 -4 11 5 5 9 -6 11 -4 5 5 -6 9 -4 11 5
5 9 -6 11 -4 5 4 -8 15 -24 2 -134 -112 l-76 -78 -170 11 c-93 5 -210 9 -260
8 l-90 -2 85 -6 85 -6 -82 -2 c-46 -1 -83 -6 -83 -11 0 -12 17 -17 75 -20 28
-2 52 -5 55 -8 3 -2 -23 -3 -57 -2 -35 1 -65 0 -68 -3 -6 -5 42 -11 233 -28
62 -5 127 -13 145 -16 18 -3 38 -7 45 -7 16 0 15 -2 -5 -18 -15 -12 -16 -12
-8 1 4 8 -3 4 -18 -9 -15 -13 -23 -29 -20 -38 4 -11 20 -1 62 39 32 30 19 14
-29 -38 -47 -50 -89 -92 -94 -93 -5 0 -3 5 3 12 6 8 7 18 3 22 -4 5 -1 5 7 0
10 -6 12 -4 6 5 -6 9 -4 11 5 5 9 -6 11 -4 5 5 -6 9 -4 11 5 5 9 -6 11 -4 5 5
-6 9 -4 11 5 5 9 -6 11 -4 5 5 -6 9 -4 11 5 5 9 -6 11 -4 5 4 -5 9 -15 5 -36
-15 -15 -15 -26 -30 -24 -34 5 -9 -20 -32 -26 -25 -3 2 -50 -41 -105 -97 -54
-55 -94 -98 -87 -94 6 3 13 1 15 -6 3 -8 12 -2 22 15 10 15 23 27 29 27 6 0
-2 -13 -17 -29 -15 -16 -35 -28 -44 -26 -10 1 -25 -4 -34 -13 -21 -17 -13 -38
8 -21 15 12 19 0 7 -17 -5 -5 48 48 116 119 l125 129 18 -36 c46 -91 224 -148
538 -176 65 -5 463 -10 913 -10 685 0 809 -2 874 -16 183 -38 275 -115 309
-263 18 -74 17 -135 -2 -229 -30 -148 -119 -266 -251 -334 -84 -44 -119 -55
-241 -78 -53 -10 -82 -19 -64 -19 19 -1 31 -5 27 -11 -17 -27 150 2 235 42 30
13 58 24 62 24 4 -1 14 8 23 19 9 11 14 13 10 5 -4 -10 -2 -9 8 2 8 10 16 15
19 13 3 -3 11 1 17 9 9 11 9 16 0 22 -8 5 -9 3 -4 -6 6 -9 4 -11 -5 -5 -8 5
-11 4 -7 -1 3 -5 -3 -10 -14 -10 -10 0 -15 3 -11 6 4 3 20 16 37 30 16 14 24
18 17 9 -10 -14 -10 -18 2 -22 7 -3 28 9 47 29 18 19 29 34 24 34 -5 0 1 7 13
16 12 8 20 19 17 24 -3 4 2 11 11 14 8 3 12 10 9 16 -3 5 -1 10 4 10 6 0 10 3
9 8 -1 4 8 28 19 54 12 27 27 91 34 145 10 84 9 110 -5 178 -9 44 -17 86 -18
93 -1 6 -5 12 -10 12 -4 0 -7 6 -6 13 2 6 -3 11 -11 9 -8 -2 -11 3 -8 11 3 9
-13 32 -39 58 -24 24 -44 39 -44 34 0 -5 -7 0 -16 11 -8 10 -13 12 -9 4 4 -9
1 -8 -8 3 -15 18 -16 18 -27 0 -10 -16 -11 -16 -6 -1 5 16 -13 34 -36 37 -5 1
-10 2 -13 2 -3 1 -9 3 -15 4 -5 1 -11 3 -12 5 -5 3 -43 10 -88 16 -25 3 -51 7
-58 9 -7 3 -244 5 -527 5 -283 0 -515 2 -515 4 0 2 8 10 17 17 14 12 16 12 9
-1 -4 -8 32 25 80 74 100 103 79 98 294 71 63 -8 142 -17 175 -20 54 -5 290
-35 407 -51 61 -9 101 7 43 16 l-40 7 35 2 c35 1 36 2 54 66 10 36 21 64 23
61 3 -2 -3 -29 -13 -60 -10 -31 -15 -59 -11 -63 10 -9 15 -2 21 32 2 17 5 31
6 33 2 1 4 7 5 12 1 6 3 11 5 13 4 5 12 44 16 77 l4 35 -10 -32 c-13 -41 -21
-43 -13 -3 l6 30 -89 2 -89 2 90 5 90 6 -110 7 c-60 4 -222 13 -360 19 -137 7
-252 16 -253 21 -2 4 -8 6 -13 2 -15 -9 -10 3 8 17 14 12 16 12 9 -1 -5 -8 12
5 37 30 24 24 42 50 40 58 -4 9 -9 10 -19 1 -8 -6 -12 -14 -10 -18 3 -4 1 -13
-5 -21 -8 -13 -9 -13 -9 0 0 8 -28 -12 -62 -45 -35 -33 -17 -12 40 46 l103
106 52 -4 c29 -2 95 -8 147 -14 101 -12 201 -10 199 4 0 5 8 15 18 24 11 8 12
12 3 8 -8 -4 -4 3 10 15 14 12 18 18 10 14 -8 -4 -5 3 8 15 14 14 22 33 21 54
0 27 -2 29 -9 12 -7 -17 -9 -17 -9 -2 -1 9 -7 17 -13 17 -9 0 -8 3 2 10 22 14
1 18 -110 24 -124 7 -122 6 -109 23 13 15 23 18 14 3 -15 -24 4 -6 55 52 30
35 46 56 35 48 -18 -13 -19 -13 -8 0 9 13 33 14 150 9 76 -4 185 -6 243 -6
l105 1 -80 6 -80 6 76 2 76 2 13 48 c7 26 17 51 21 57 5 5 9 13 9 17 0 4 -87
9 -192 10 l-193 2 195 6 c107 3 190 8 184 12 -6 4 -86 8 -178 8 -143 2 -165 4
-155 16 14 17 23 18 13 2 -5 -9 -2 -9 9 1 18 15 23 26 7 16 -5 -3 -10 0 -10 6
0 7 -20 -7 -45 -31 -25 -24 -45 -42 -45 -39 0 2 33 37 74 78 51 51 76 69 81
60 6 -8 4 -10 -5 -4 -9 6 -11 4 -5 -5 6 -9 4 -11 -5 -5 -9 6 -11 4 -5 -5 6 -9
4 -11 -5 -5 -9 6 -11 4 -5 -5 6 -9 4 -11 -5 -5 -9 6 -11 4 -5 -5 6 -9 4 -11
-5 -5 -9 6 -11 4 -5 -5 13 -21 295 274 287 301 -1 5 3 9 10 9 6 0 8 3 5 7 -4
3 0 11 8 17 7 6 15 18 17 26 2 8 10 21 18 28 13 12 13 13 0 7 -10 -4 -9 -2 2
8 10 8 15 17 11 20 -3 4 -1 7 6 7 7 0 9 5 6 10 -3 6 -1 10 6 10 7 0 9 3 6 6
-3 4 -1 16 5 27 53 100 49 391 -7 497 -11 19 -20 41 -21 48 -4 24 -85 111 -98
106 -8 -3 -17 0 -22 7 -5 8 -3 10 6 4 9 -5 11 -4 6 4 -4 6 -12 9 -17 6 -5 -4
-9 -1 -9 5 0 6 -4 8 -10 5 -5 -3 -10 -2 -10 3 0 18 -97 55 -180 69 -19 3 -43
9 -52 14 -9 5 -41 9 -70 8 l-53 -1 40 -13 c33 -11 -71 -13 -641 -14 -374 -1
-707 2 -740 6 l-59 8 40 6 c33 5 27 6 -30 7 -38 1 -77 -2 -85 -7z m1440 -1394
l-45 -44 -290 13 c-159 6 -425 17 -590 23 -375 15 -410 18 -394 37 10 12 115
14 688 14 l676 0 -45 -43z m-930 -222 c305 -14 583 -28 618 -31 l63 -6 -38
-43 c-21 -24 -46 -46 -55 -50 -9 -3 -223 19 -475 50 -252 30 -520 63 -595 72
-76 9 -135 20 -132 25 7 11 -14 11 614 -17z m-186 -370 c286 -14 521 -27 523
-28 1 -2 -21 -26 -50 -55 l-52 -51 -595 71 c-327 39 -597 72 -599 74 -1 1 0 8
4 15 6 9 39 10 129 5 67 -3 355 -17 640 -31z"/>
<path d="M10626 3133 c-4 -5 -11 -8 -14 -8 -20 0 -92 -29 -92 -37 0 -5 -4 -7
-9 -3 -15 9 -111 -93 -105 -110 4 -8 10 -12 16 -9 5 3 7 13 4 21 -4 9 -2 11 6
7 7 -5 8 -2 3 7 -5 8 -4 11 0 6 5 -4 20 3 34 15 l26 23 -26 -30 c-14 -17 -38
-48 -53 -70 -14 -22 -26 -35 -26 -29 0 5 5 15 12 22 9 9 9 15 1 23 -8 8 -13 8
-17 0 -4 -6 -4 -11 0 -11 3 0 -1 -11 -10 -25 -9 -14 -14 -25 -10 -25 4 0 1 -6
-5 -14 -14 -17 -14 -236 1 -236 5 0 6 -4 3 -10 -3 -5 -1 -10 5 -10 6 0 8 -4 5
-10 -3 -5 -1 -10 5 -10 6 0 8 -4 5 -10 -3 -5 -1 -10 5 -10 6 0 9 -4 6 -9 -5
-7 12 -36 44 -73 3 -4 6 1 6 11 0 11 -5 17 -10 14 -5 -3 -6 -1 -2 6 10 15 -13
43 -27 34 -6 -3 -7 -1 -3 5 4 6 -3 29 -14 52 -11 22 -18 40 -15 40 2 0 14 -19
26 -42 12 -24 35 -60 51 -80 20 -26 25 -39 16 -44 -17 -10 50 -64 70 -57 11 5
13 3 7 -8 -4 -8 -4 -11 0 -6 5 4 18 1 30 -7 17 -11 51 -14 141 -12 134 4 144
5 144 19 0 6 3 7 7 4 3 -4 12 1 20 11 10 11 12 12 8 2 -4 -9 -1 -8 8 3 9 10
19 18 24 17 18 -2 72 51 66 66 -5 12 -11 10 -34 -12 -16 -15 -26 -31 -23 -35
2 -4 0 -10 -5 -13 -20 -13 -3 26 24 54 22 23 32 27 42 19 12 -11 17 -5 14 14
0 4 3 7 9 7 11 0 36 46 46 86 4 16 9 65 11 109 4 65 0 92 -17 137 -26 71 -53
107 -65 88 -6 -9 -4 -11 5 -5 8 5 11 4 7 -2 -3 -5 7 -35 24 -68 25 -51 29 -68
29 -144 0 -70 -5 -96 -24 -137 -13 -28 -28 -54 -33 -57 -5 -3 3 19 19 50 24
48 28 67 28 142 0 102 -23 161 -91 238 -37 41 -38 43 -7 15 27 -26 37 -30 41
-19 3 9 -7 27 -24 43 -16 15 -29 24 -29 19 0 -5 -7 0 -16 11 -8 10 -13 12 -9
4 4 -10 2 -9 -8 2 -8 10 -17 15 -20 11 -4 -3 -7 -1 -7 5 0 7 -3 11 -7 10 -5
-1 -18 3 -31 10 -12 7 -27 10 -32 7 -5 -3 -11 -1 -15 5 -7 11 -158 14 -169 3z"/>
<path d="M84 1105 c5 -75 37 -162 83 -221 19 -25 32 -48 29 -51 -2 -3 -12 7
-21 21 -10 14 -21 23 -26 20 -5 -3 -9 -2 -8 3 4 21 -2 34 -13 27 -7 -4 -8 -3
-4 5 4 6 3 17 -2 24 -18 23 -45 107 -52 164 l-7 58 -2 -51 c0 -28 6 -70 14
-93 8 -22 11 -41 8 -41 -3 0 1 -8 10 -18 10 -10 14 -22 10 -25 -3 -4 -1 -7 6
-7 7 0 9 -5 6 -10 -3 -6 1 -13 9 -16 9 -3 13 -10 10 -15 -6 -10 96 -122 104
-114 3 3 11 -4 19 -15 9 -12 20 -17 31 -13 9 3 14 2 10 -2 -16 -17 147 -75
207 -74 21 0 12 5 -30 15 -33 8 -64 19 -70 25 -7 7 -1 7 17 0 15 -6 56 -13 90
-16 l63 -5 -85 20 c-112 26 -199 70 -264 134 -67 65 -103 135 -127 246 -19 84
-19 85 -15 25z"/>
<path d="M7063 667 c-3 -6 -1 -7 5 -3 7 4 12 2 12 -4 0 -6 6 -8 13 -4 10 6 10
4 0 -7 -10 -9 -13 -69 -13 -225 0 -176 3 -214 15 -224 12 -10 18 -10 31 0 13
12 15 45 12 241 -2 125 0 225 4 223 4 -2 7 -105 8 -227 1 -212 0 -224 -20
-242 -19 -18 -21 -18 -40 0 -20 18 -21 28 -18 237 2 120 -1 218 -5 218 -4 0
-7 -107 -5 -237 l3 -238 45 0 45 0 2 248 c2 136 -1 248 -5 248 -37 7 -84 4
-89 -4z"/>
<path d="M7970 648 c-1 -2 -3 -21 -6 -43 -7 -48 -4 -44 -35 -48 -22 -4 -24 -9
-24 -52 0 -43 2 -48 24 -52 14 -2 26 -4 27 -6 1 -1 4 -55 6 -119 4 -112 16
-156 39 -142 5 3 9 1 9 -4 0 -5 25 -9 55 -9 30 0 55 3 55 8 0 5 5 8 11 7 6 -2
13 4 14 12 2 8 4 20 5 25 4 19 0 35 -9 35 -5 0 -7 -8 -4 -18 2 -11 -4 -25 -14
-33 -16 -13 -17 -12 -5 2 7 9 10 27 8 40 -3 13 -5 28 -5 33 -1 4 -12 6 -26 4
l-25 -5 0 83 c0 77 2 84 20 85 40 3 45 4 46 14 0 6 4 18 9 28 4 11 3 23 -4 30
-8 8 -11 6 -11 -10 0 -11 -7 -27 -17 -34 -14 -13 -15 -12 -5 6 11 21 18 42 21
60 1 10 -3 11 -39 14 -14 1 -20 8 -20 25 0 47 -19 37 -22 -11 l-3 -48 -5 53
c-3 30 -1 56 4 60 5 3 6 -1 1 -8 -5 -9 -4 -11 3 -6 22 13 12 23 -22 24 -27 1
-35 -3 -34 -16 0 -9 -5 -30 -10 -47 l-10 -30 1 37 c1 20 5 34 9 32 4 -3 5 2 2
10 -5 14 -13 21 -14 14z"/>
<path d="M8947 641 c-2 -3 -4 -22 -6 -41 -3 -42 -1 -39 -32 -43 -22 -4 -24 -9
-24 -52 0 -43 2 -48 24 -52 14 -2 26 -4 27 -6 1 -1 4 -54 6 -119 4 -144 11
-156 96 -156 80 1 94 10 90 61 -2 23 -7 42 -13 43 -5 0 -18 4 -27 8 -9 4 -22
5 -28 1 -7 -4 -10 22 -10 79 0 79 2 86 20 87 11 1 25 2 32 3 25 2 25 100 0
102 -7 1 -21 2 -32 3 -14 1 -20 8 -20 24 0 13 -3 27 -7 31 -5 4 -8 13 -8 19 0
12 -83 20 -88 8z"/>
<path d="M9751 636 c1 -6 1 -26 0 -43 -1 -27 -5 -33 -22 -33 -14 0 -19 -5 -16
-15 4 -8 1 -17 -4 -21 -6 -3 -9 -14 -6 -24 2 -10 1 -24 -4 -31 -4 -8 -7 9 -5
39 1 29 -2 48 -7 43 -13 -13 -4 -96 11 -97 6 -1 21 -2 32 -3 20 -1 21 -6 16
-96 -5 -99 4 -153 28 -171 22 -15 105 -17 123 -2 9 7 19 12 22 11 3 -2 6 0 7
5 0 4 4 15 8 24 4 9 4 23 0 30 -5 7 -9 18 -9 23 0 6 -17 10 -38 9 l-37 -1 0
83 c0 77 2 84 20 85 11 1 25 3 30 4 6 1 13 3 17 4 4 0 2 6 -5 13 -7 7 -12 21
-12 33 0 12 5 26 12 33 7 7 9 13 5 13 -4 1 -11 3 -17 4 -5 1 -19 3 -30 4 -16
1 -20 8 -20 37 0 22 -4 33 -10 29 -6 -4 -8 -14 -6 -23 3 -10 1 -30 -4 -47
l-10 -30 5 33 c3 19 0 43 -6 54 -6 12 -7 18 -1 14 5 -3 12 0 15 7 4 10 -7 14
-39 14 -28 1 -44 -4 -43 -11z"/>
<path d="M7205 550 c-2 -4 -3 -90 -2 -191 l2 -184 44 0 c35 0 45 4 47 18 6 44
7 217 1 223 -4 4 -7 -40 -7 -98 0 -89 -3 -107 -18 -121 -10 -10 -23 -17 -28
-17 -4 0 2 7 14 16 20 14 22 23 22 117 0 56 5 109 10 117 6 9 27 15 57 16 26
1 50 2 52 3 2 1 -2 9 -10 19 -7 9 -2 7 11 -5 22 -21 25 -32 30 -149 3 -69 2
-128 -1 -130 -4 -2 -7 42 -8 99 -2 121 -9 173 -23 159 -6 -6 -6 -16 0 -28 5
-11 10 -60 11 -109 3 -134 1 -129 49 -132 27 -1 42 3 46 13 5 13 1 255 -5 282
-1 6 -6 12 -10 12 -5 0 -6 6 -3 13 2 7 -8 24 -22 37 -15 14 -24 18 -20 10 6
-11 4 -11 -6 1 -18 22 -124 24 -132 2 -3 -8 -11 -11 -17 -7 -8 4 -9 -1 -5 -17
6 -20 5 -21 -4 -6 -13 20 -4 41 12 31 6 -4 8 -3 5 3 -7 11 -85 14 -92 3z"/>
<path d="M7630 548 c0 -5 -4 -6 -10 -3 -5 3 -10 1 -10 -5 0 -6 -4 -9 -9 -6
-11 7 -43 -28 -34 -37 3 -4 2 -7 -4 -7 -16 0 -13 -107 4 -128 8 -9 11 -11 7
-3 -5 9 -3 12 4 7 9 -5 9 -13 2 -27 -6 -10 -13 -19 -16 -19 -3 0 -2 5 2 12 4
7 3 8 -4 4 -7 -4 -12 -27 -12 -52 0 -25 4 -43 8 -40 5 3 8 18 7 33 -1 15 0 19
2 8 3 -11 14 -30 26 -43 21 -23 33 -57 16 -46 -5 3 -7 9 -4 13 2 5 -4 16 -14
25 -16 15 -19 15 -24 2 -4 -10 6 -24 26 -38 26 -19 47 -23 111 -25 44 -1 84 1
90 5 6 3 17 7 24 8 22 4 41 25 35 40 -4 11 -8 12 -20 3 -10 -9 -11 -14 -3 -19
8 -5 7 -9 -3 -13 -19 -7 -16 16 5 40 24 27 31 65 17 98 -7 17 -13 32 -13 35
-1 3 -5 11 -10 19 -7 10 -6 12 3 6 9 -5 12 -1 10 11 -2 11 0 25 4 31 4 7 3 22
-4 34 -6 12 -7 19 -1 15 5 -3 12 0 15 8 6 16 -26 50 -36 39 -4 -3 -7 -1 -7 6
0 7 -4 9 -10 6 -5 -3 -10 -2 -10 3 0 6 -35 10 -80 10 -45 0 -80 -4 -80 -10z"/>
<path d="M8261 541 c-6 -9 -9 -10 -5 -2 5 10 3 12 -7 6 -31 -18 -47 -38 -42
-51 4 -12 11 -11 32 8 l26 23 -26 -30 c-41 -46 -52 -74 -52 -130 0 -54 12 -85
46 -123 21 -23 33 -57 16 -46 -5 3 -7 9 -4 13 5 10 -26 40 -39 38 -5 -1 -11 7
-12 18 -1 11 -7 38 -13 60 -6 25 -7 55 -1 80 9 38 6 55 -6 42 -15 -15 -7 -167
9 -167 4 0 5 -5 2 -10 -13 -20 44 -79 86 -90 53 -14 110 -10 127 10 8 8 11 10
8 4 -3 -7 1 -14 9 -18 12 -4 14 2 10 32 -4 34 -4 35 7 12 6 -14 10 -31 9 -38
-2 -9 8 -12 31 -9 l33 3 0 190 0 189 -116 1 c-97 2 -117 -1 -128 -15z m127
-101 c1 -1 7 -3 12 -4 19 -2 30 -30 30 -73 0 -34 -6 -49 -31 -75 -18 -18 -27
-26 -20 -17 6 9 7 20 3 24 -4 5 -2 5 5 1 7 -4 17 2 22 13 14 25 14 104 1 96
-6 -4 -7 1 -3 12 3 10 3 15 -2 11 -4 -4 -15 -3 -22 4 -8 6 -5 -5 7 -25 15 -26
19 -43 14 -59 -4 -13 -7 -27 -5 -33 1 -5 -1 -7 -5 -3 -9 9 -36 -11 -29 -22 8
-13 -65 -4 -78 10 -10 12 -9 12 3 5 13 -8 13 -7 0 5 -10 9 -17 31 -17 55 0 24
7 46 17 55 12 12 12 13 0 5 -13 -8 -13 -8 -2 6 8 11 25 16 55 14 23 -2 43 -4
45 -5z"/>
<path d="M8554 546 c-3 -7 -3 -93 -2 -191 l3 -180 45 0 45 0 3 110 c2 75 8
117 18 133 11 17 11 22 2 20 -24 -5 -28 -23 -28 -124 0 -85 -3 -104 -18 -117
-10 -10 -23 -17 -28 -17 -4 0 2 7 14 16 20 14 22 23 22 117 1 70 5 110 15 127
8 14 14 20 15 13 0 -7 13 -10 35 -7 32 4 37 1 49 -27 7 -18 14 -71 15 -118 3
-129 1 -125 49 -128 41 -1 54 8 30 23 -7 5 -8 3 -3 -6 5 -9 4 -11 -3 -6 -9 5
-9 13 -1 28 19 35 6 219 -19 268 -13 26 -16 43 -9 47 6 4 7 1 2 -7 -6 -9 -4
-11 5 -5 9 6 11 4 5 -5 -5 -8 -4 -11 1 -7 5 3 10 -2 11 -11 0 -9 6 -44 13 -77
6 -33 10 -95 8 -137 -2 -43 0 -78 4 -78 12 0 9 220 -3 265 -12 43 -46 88 -60
79 -5 -3 -9 -1 -9 4 0 16 -118 12 -124 -5 -3 -8 -11 -11 -17 -7 -8 4 -9 -1 -5
-17 6 -20 5 -21 -4 -6 -13 20 -4 41 12 31 6 -4 8 -3 5 3 -9 14 -88 13 -93 -1z"/>
<path d="M9411 541 c-6 -9 -9 -10 -5 -3 12 26 -33 -6 -58 -40 -19 -28 -23 -47
-25 -122 -3 -119 25 -175 97 -194 35 -9 120 -10 121 -1 1 5 2 13 3 18 0 5 4
13 8 17 4 3 6 -3 3 -14 -2 -12 3 -23 11 -26 11 -4 13 1 9 27 -6 30 -5 31 8 12
8 -10 12 -25 10 -33 -4 -10 3 -12 28 -10 l34 4 0 189 0 189 -32 3 c-31 4 -33
2 -33 -26 0 -17 -4 -31 -8 -31 -5 0 -6 14 -4 31 3 22 1 30 -7 25 -6 -4 -9 -12
-6 -17 3 -5 -1 -6 -9 -3 -9 3 -14 10 -11 14 3 4 -24 8 -58 8 -47 0 -67 -4 -76
-17z m22 -98 c-5 -15 -4 -16 8 -7 20 15 86 12 101 -6 11 -12 10 -12 -7 0 -17
13 -17 11 3 -14 26 -34 28 -55 7 -82 -19 -24 -19 -31 0 -31 16 0 22 17 28 77
3 29 4 26 5 -12 2 -41 -2 -52 -29 -80 -18 -18 -26 -26 -20 -16 14 19 -3 35
-22 20 -14 -11 -46 -10 -66 3 -11 6 -13 4 -8 -8 11 -29 -2 -19 -19 14 -15 31
-22 94 -11 106 3 3 6 -13 5 -35 0 -22 5 -48 11 -58 6 -11 11 -15 11 -10 0 5 8
2 17 -5 11 -9 9 -3 -5 15 -28 36 -28 66 0 102 13 15 16 24 8 19 -28 -18 -41
-15 -30 6 13 24 22 25 13 2z"/>
<path d="M10108 548 c-12 -32 4 -91 56 -212 39 -87 55 -135 50 -150 -9 -31
-54 -75 -70 -69 -8 3 -14 1 -15 -3 0 -5 -2 -19 -5 -31 -11 -60 41 -92 94 -57
13 9 21 11 17 4 -6 -9 -3 -9 12 -2 24 13 40 32 45 52 2 8 6 17 9 20 4 3 38 91
78 197 66 179 85 253 61 238 -6 -4 -8 -10 -5 -15 3 -4 -29 -97 -71 -206 -42
-110 -76 -207 -77 -216 -1 -9 -5 -14 -9 -12 -4 3 -6 -1 -5 -8 2 -7 2 -9 -1 -5
-2 5 -14 0 -26 -10 l-21 -18 21 25 c31 37 40 55 116 259 l69 186 -22 18 c-12
9 -17 17 -12 17 5 0 14 -5 20 -11 7 -7 12 -6 16 4 4 10 -6 14 -39 14 -24 1
-45 -3 -45 -8 -3 -16 -5 -24 -21 -59 -8 -19 -20 -52 -27 -72 -7 -21 -16 -38
-20 -38 -5 0 -25 40 -45 88 -36 85 -39 89 -70 90 -31 1 -33 -1 -34 -33 -1 -22
20 -85 58 -174 33 -77 60 -145 60 -151 0 -17 -38 -88 -52 -96 -10 -6 -11 -4 0
7 18 20 15 33 -5 18 -16 -13 -17 -12 -4 3 7 10 17 16 21 13 7 -4 30 38 30 56
0 6 -27 74 -61 152 -34 81 -59 151 -56 164 5 26 -8 52 -15 31z"/>
<path d="M10550 547 c0 -6 -3 -7 -6 -4 -10 10 -45 -13 -39 -24 4 -5 1 -8 -5
-7 -35 8 -66 -132 -47 -215 10 -45 45 -93 79 -110 43 -21 148 -20 166 2 7 9
10 10 7 3 -6 -11 -3 -12 11 -4 25 13 52 43 56 62 2 8 8 18 13 22 12 8 14 173
3 184 -16 15 -18 -5 -6 -49 9 -37 9 -53 -2 -89 -8 -23 -14 -49 -13 -55 0 -7
-3 -10 -8 -7 -5 3 -7 -1 -6 -8 2 -7 2 -9 -1 -5 -2 5 -16 -2 -30 -15 -20 -18
-19 -15 5 14 62 73 66 173 10 238 -20 23 -20 23 -1 7 11 -9 24 -14 29 -10 4 5
5 2 0 -6 -5 -10 -4 -12 4 -7 13 8 8 20 -22 53 -19 21 -53 21 -40 0 3 -6 1 -7
-6 -3 -9 6 -9 11 1 24 10 12 10 14 1 8 -7 -4 -13 -3 -13 2 0 6 -31 10 -70 10
-43 0 -70 -4 -70 -11z m13 -104 c-5 -12 -3 -14 8 -7 15 9 93 15 84 6 -3 -3 4
-15 16 -28 26 -28 30 -53 11 -81 -8 -13 -11 -23 -6 -23 24 0 -22 -25 -49 -26
-48 -3 -49 -3 -41 -16 4 -8 3 -10 -2 -5 -5 5 -9 14 -9 20 0 7 -7 12 -15 12
-19 0 -40 62 -33 95 6 24 31 70 39 70 2 0 0 -7 -3 -17z"/>
<path d="M10837 553 c-8 -13 -3 -270 6 -302 8 -29 47 -72 58 -65 5 3 9 1 9 -4
0 -6 47 -9 113 -8 l112 1 0 190 0 190 -45 0 -45 0 -5 -110 c-6 -131 -19 -162
-63 -162 -23 1 -31 -3 -29 -14 2 -10 -2 -9 -15 4 -15 15 -19 39 -23 143 -3 69
-2 128 1 130 4 2 7 -48 8 -112 1 -63 6 -125 11 -137 5 -12 9 -17 10 -12 5 29
-3 231 -8 240 -4 5 -7 14 -7 19 0 5 -15 11 -33 13 -23 3 -33 0 -31 -9 1 -7 -1
-21 -6 -31 -4 -10 -6 -67 -3 -126 4 -87 9 -115 26 -144 14 -25 17 -39 10 -43
-7 -5 -8 -2 -3 6 6 9 4 11 -5 5 -9 -6 -11 -4 -5 5 5 8 4 11 -1 7 -5 -3 -10 2
-11 11 -1 9 -6 35 -12 57 -13 50 -14 218 -1 231 5 5 5 15 1 23 -5 7 -11 9 -14
4z"/>
</g>
</svg>
