<svg id="Group_4" data-name="Group 4" xmlns="http://www.w3.org/2000/svg" width="16.74" height="19.03"
     viewBox="0 0 16.74 19.03">
    <g id="Ellipse_2" data-name="Ellipse 2" transform="translate(4.078 0)" fill="none" stroke="#5d6a78"
       stroke-width="2">
        <ellipse cx="4.185" cy="4.185" rx="4.185" ry="4.185" stroke="none"/>
        <ellipse cx="4.185" cy="4.185" rx="3.185" ry="3.185" fill="none"/>
    </g>
    <g id="Path_22" data-name="Path 22" transform="translate(0 9.014)" fill="none">
        <path d="M7.082,0H9.658A7.082,7.082,0,0,1,16.74,7.082c0,3.911-16.74,3.911-16.74,0A7.082,7.082,0,0,1,7.082,0Z"
              stroke="none"/>
        <path d="M 7.082260131835938 1.999997138977051 C 4.362845420837402 1.999997138977051 2.135449409484863 4.146653652191162 2.005960464477539 6.834556102752686 C 2.235191345214844 7.003331661224365 2.814240455627441 7.30738353729248 3.934760093688965 7.567926406860352 C 5.176899909973145 7.856756687164307 6.752009391784668 8.015816688537598 8.369939804077148 8.015816688537598 C 9.987869262695313 8.015816688537598 11.56297969818115 7.856756687164307 12.80511951446533 7.567926406860352 C 13.92563915252686 7.30738353729248 14.50468826293945 7.003331661224365 14.73391914367676 6.834556102752686 C 14.60443019866943 4.146653652191162 12.37703323364258 1.999997138977051 9.657619476318359 1.999997138977051 L 7.082260131835938 1.999997138977051 M 7.082260131835938 -2.86102294921875e-06 L 9.657619476318359 -2.86102294921875e-06 C 13.56904029846191 -2.86102294921875e-06 16.7398796081543 3.170836448669434 16.7398796081543 7.082256317138672 C 16.7398796081543 9.037966728210449 12.55490970611572 10.01582145690918 8.369939804077148 10.01582145690918 C 4.184969902038574 10.01582145690918 0 9.037966728210449 0 7.082256317138672 C 0 3.170836448669434 3.170829772949219 -2.86102294921875e-06 7.082260131835938 -2.86102294921875e-06 Z"
              stroke="none" fill="#5d6a78"/>
    </g>
</svg>
