<svg id="Icons" enable-background="new 0 0 512 512" height="512" viewBox="0 0 512 512" width="512" xmlns="http://www.w3.org/2000/svg"><g><path d="m24.821 365.979c-.696-1.458-1.373-2.921-2.038-4.387.663 1.469 1.347 2.929 2.038 4.387z" fill="#57409b"/><path d="m153.637 490.647c-1.08-.47-2.157-.946-3.231-1.432 1.074.489 2.152.961 3.231 1.432z" fill="#57409b"/><path d="m181.18 500.879c.286.087.573.169.86.255 1.608.487 3.219.958 4.832 1.412.951.266 1.908.52 2.864.775.952.255 1.903.514 2.856.758 1.625.414 3.257.812 4.894 1.194.291.068.581.141.871.208 8.819 2.029 17.816 3.588 26.957 4.681-24.028-2.919-47.551-9.223-69.82-18.708 8.463 3.625 17.034 6.774 25.686 9.425z" fill="#57409b"/><path d="m146.023 487.179c-.258-.122-.517-.242-.774-.365.257.124.516.243.774.365z" fill="#57409b"/><path d="m106.827 47.943c1.308-.935 2.624-1.862 3.954-2.776-1.325.915-2.646 1.837-3.954 2.776z" fill="#57409b"/><path d="m21.354 153.633c.469-1.078.945-2.154 1.429-3.226-.487 1.072-.958 2.149-1.429 3.226z" fill="#57409b"/><path d="m21.354 358.368c-.272-.621-.543-1.242-.81-1.864.266.623.54 1.243.81 1.864z" fill="#57409b"/><path d="m230.839 510.768c-1.172-.117-2.344-.243-3.514-.375 1.17.13 2.339.261 3.514.375z" fill="#57409b"/><path d="m102.344 51.232c.539-.403 1.082-.804 1.625-1.203-.543.4-1.087.798-1.625 1.203z" fill="#57409b"/><path d="m24.822 146.02c.122-.256.241-.514.364-.77-.124.256-.242.513-.364.77z" fill="#57409b"/><path d="m1.232 230.839c.117-1.172.243-2.344.376-3.514-.131 1.17-.262 2.339-.376 3.514z" fill="#57409b"/><path d="m.734 236.506c.022-.284.047-.567.07-.85-.022.283-.049.566-.07.85z" fill="#57409b"/><path d="m47.944 405.173c-.935-1.308-1.862-2.625-2.776-3.954.914 1.325 1.836 2.646 2.776 3.954z" fill="#57409b"/><path d="m34.297 384c-3.279-5.68-6.314-11.434-9.111-17.249 1.997 4.171 4.096 8.297 6.321 12.363.147.268.299.533.448.8.758 1.374 1.528 2.742 2.312 4.103.787 1.36 1.587 2.711 2.398 4.056.157.261.31.525.468.786 2.409 3.96 4.933 7.841 7.547 11.657-3.637-5.331-7.103-10.836-10.383-16.516z" fill="#57409b"/><path d="m20.545 155.496c-3.624 8.461-6.772 17.031-9.424 25.683-.088.287-.17.576-.257.864-.486 1.607-.957 3.216-1.411 4.828-.267.953-.52 1.911-.776 2.868-.255.95-.513 1.9-.757 2.853-.415 1.629-.813 3.264-1.197 4.905-.067.286-.139.572-.205.858-2.03 8.82-3.589 17.818-4.681 26.959 2.92-24.027 9.223-47.55 18.708-69.818z" fill="#57409b"/><path d="m50.029 408.032c.401.542.798 1.086 1.203 1.625-.369-.493-.734-.99-1.1-1.486-.035-.047-.069-.093-.103-.139z" fill="#57409b"/><path d="m148.667 70.093c.381-.747.889-1.444 1.539-2.049 2.978-2.768 7.636-2.597 10.404.381 2.768 2.979 2.597 7.636-.381 10.404-1.518 1.411-3.472 2.053-5.39 1.955l35.346 61.222c2.537-8.354 5.667-16.448 9.342-24.236-1.774-.14-3.504-.912-4.811-2.319-2.768-2.978-2.597-7.636.381-10.404s7.636-2.598 10.404.381c.095.102.177.21.265.315 7.293-12.835 16.117-24.687 26.237-35.294-.056-.057-.116-.107-.171-.167-2.768-2.978-2.597-7.636.381-10.404 2.97-2.76 7.609-2.597 10.379.357 27.637-24.601 62.932-40.775 101.868-44.494-4.523-1.671-9.069-3.221-13.64-4.622-.286-.087-.573-.169-.86-.255-1.608-.487-3.219-.958-4.832-1.412-.951-.266-1.908-.52-2.864-.775-.952-.255-1.903-.514-2.856-.758-1.628-.415-3.262-.812-4.902-1.196-.287-.067-.574-.139-.861-.206-18.528-4.262-37.823-6.517-57.645-6.517-6.559 0-13.06.249-19.494.733-.284.022-.567.048-.85.07-.258.021-.515.048-.773.069 1.11 2.748.492 6.011-1.808 8.148-2.978 2.768-7.636 2.597-10.404-.381-1.613-1.736-2.221-4.041-1.864-6.211-21.258 2.965-42.078 8.589-61.944 16.72 1.484.284 2.896 1.019 4.003 2.21 2.768 2.978 2.597 7.636-.381 10.404s-7.636 2.597-10.404-.381c-2.338-2.516-2.571-6.227-.794-8.988-6.241 2.792-12.384 5.821-18.401 9.113-.271.149-.538.302-.808.452-1.371.757-2.737 1.526-4.096 2.309-1.362.788-2.715 1.589-4.061 2.401-.259.156-.521.308-.78.465-3.96 2.409-7.842 4.933-11.657 7.547 5.33-3.637 10.835-7.103 16.515-10.382zm128.713-56.352c2.978-2.768 7.636-2.597 10.404.381s2.597 7.636-.381 10.404-7.636 2.598-10.404-.381c-2.768-2.978-2.598-7.636.381-10.404zm-78.509 19.8c2.978-2.768 7.636-2.598 10.404.381 2.768 2.978 2.597 7.636-.381 10.404s-7.636 2.597-10.404-.381-2.598-7.636.381-10.404z" fill="#57409b"/><path d="m365.977 487.179c-1.457.695-2.918 1.372-4.383 2.037 1.468-.663 2.927-1.346 4.383-2.037z" fill="#57409b"/><path d="m495.358 313.592c.013.014.028.026.041.04 2.768 2.978 2.597 7.636-.381 10.404-2.803 2.605-7.093 2.605-9.896.113-32.14 30.522-75.585 49.253-123.408 49.253-13.964 0-27.554-1.598-40.599-4.619l22.74 39.387 11.28 19.538 4.041 7 6.642 11.505 4.041 7 14.141 24.49c-5.68 3.279-11.434 6.314-17.249 9.111 4.171-1.997 8.297-4.096 12.362-6.32.27-.148.537-.302.806-.451 1.373-.758 2.739-1.527 4.099-2.311 1.36-.787 2.711-1.586 4.055-2.397.261-.157.524-.31.785-.468 27.927-16.988 52.341-39.175 71.91-65.211.403-.539.803-1.082 1.203-1.625.701-.948 1.397-1.901 2.085-2.859.935-1.308 1.862-2.625 2.776-3.954.162-.235.326-.468.487-.703 3.637-5.331 7.103-10.835 10.382-16.516 9.911-17.166 17.605-35.003 23.177-53.18.087-.286.169-.573.256-.859.487-1.608.958-3.219 1.412-4.833.266-.951.519-1.908.775-2.863.256-.952.514-1.903.758-2.856.415-1.628.813-3.262 1.196-4.902.068-.288.139-.574.206-.861 1.288-5.599 2.38-11.272 3.295-17.004-4.134 5.922-8.616 11.582-13.418 16.951zm-56.515 61.899c2.978-2.768 7.636-2.597 10.404.381 2.768 2.979 2.597 7.636-.381 10.404s-7.636 2.597-10.404-.381-2.597-7.636.381-10.404zm-36.646 35.787c-2.978 2.768-7.636 2.597-10.404-.381-2.768-2.979-2.597-7.636.381-10.404s7.636-2.597 10.404.381c2.768 2.979 2.597 7.636-.381 10.404z" fill="#57409b"/><path d="m358.363 490.647c-.619.271-1.238.542-1.858.807.622-.264 1.239-.537 1.858-.807z" fill="#57409b"/><path d="m236.506 511.267c-.284-.022-.567-.048-.85-.07.283.021.566.048.85.07z" fill="#57409b"/><path d="m242.617 60.261c2.768 2.978 2.597 7.636-.381 10.404-2.919 2.713-7.448 2.596-10.233-.214-10.119 10.607-18.944 22.458-26.237 35.294 2.479 2.983 2.23 7.415-.646 10.088-1.572 1.46-3.61 2.095-5.593 1.938-3.675 7.788-6.805 15.882-9.342 24.236l62.315 107.931v-78.247c0-39.229 0-70.213 8.169-92.508 9.035-24.659 27.775-36.144 58.975-36.144 20.391 0 41.19 4.094 44.963 32.327 7.351 1.36 12.922 7.793 12.922 15.538v1.842c.321.38.618.778.911 1.18 1.823 2.5 3.096 5.418 3.65 8.592.203 1.165.33 2.356.33 3.579 0 0-.08 2.46.318 3.985 37.694 9.396 65.625 43.471 65.625 84.074 0 47.854-38.794 86.648-86.648 86.648-.676 0-1.349-.01-2.021-.026 1.091 2.741.469 5.986-1.822 8.115-2.978 2.768-7.636 2.597-10.404-.381-2.345-2.523-2.573-6.247-.78-9.01-40.691-7.116-71.621-42.618-71.621-85.347 0-20.338 7.01-39.037 18.742-53.82-1.921-.041-3.824-.825-5.235-2.344-2.768-2.979-2.597-7.636.381-10.404s7.636-2.597 10.404.381c1.098 1.182 1.726 2.629 1.907 4.117 10.798-10.518 24.327-18.24 39.426-22.004.398-1.525.318-3.985.318-3.985 0-5.09 1.844-9.745 4.891-13.351v-1.842c0-6.588 4.03-12.23 9.758-14.608.624-.259 1.273-.466 1.935-.645-3.02-21.05-16.966-25.612-37.948-25.612-60.145 0-60.145 45.79-60.145 121.651v84.311c0 1.956-.088 3.831-.247 5.634l28.991 50.214c.39-1.001.998-1.934 1.838-2.714 2.978-2.768 7.636-2.597 10.404.381 2.768 2.979 2.597 7.636-.381 10.404-1.71 1.589-3.973 2.205-6.115 1.881l27.126 46.983c13.045 3.021 26.635 4.619 40.599 4.619 47.822 0 91.268-18.731 123.408-49.253-.175-.155-.345-.319-.508-.494-2.768-2.978-2.597-7.636.381-10.404 2.964-2.755 7.59-2.597 10.363.341 4.802-5.369 9.284-11.029 13.418-16.951 2.11-13.237 3.222-26.808 3.222-40.641 0-37.434-8.038-72.99-22.477-105.04-.39 1-.998 1.933-1.837 2.712-2.978 2.768-7.636 2.597-10.404-.381s-2.597-7.636.381-10.404c2.011-1.869 4.787-2.393 7.231-1.623-22.678-45.152-58.311-82.672-102.036-107.666.587 2.492-.138 5.22-2.148 7.087-2.978 2.768-7.636 2.597-10.404-.381s-2.597-7.636.381-10.404c.755-.702 1.62-1.213 2.533-1.54-9.244-4.77-18.814-8.994-28.67-12.628-.03.003-.059.005-.089.008-38.936 3.719-74.232 19.894-101.868 44.494.007.011.016.018.024.027zm53.465 8.431c2.978-2.768 7.636-2.597 10.404.381s2.597 7.636-.381 10.404-7.636 2.597-10.404-.381-2.597-7.637.381-10.404zm-11.371 190.878c-2.978 2.768-7.636 2.597-10.404-.381s-2.597-7.636.381-10.404 7.636-2.598 10.404.381c2.767 2.978 2.597 7.636-.381 10.404zm75.597 106.542c-2.978 2.768-7.636 2.597-10.404-.381s-2.597-7.636.381-10.404 7.636-2.597 10.404.381c2.767 2.978 2.597 7.636-.381 10.404zm44.17-18.331c-2.978 2.768-7.636 2.597-10.404-.381s-2.597-7.636.381-10.404 7.636-2.597 10.404.381 2.597 7.636-.381 10.404zm44.869-127.622c2.978-2.768 7.636-2.597 10.404.381 2.768 2.979 2.597 7.636-.381 10.404s-7.636 2.597-10.404-.381c-2.767-2.978-2.597-7.636.381-10.404zm-10.342 73.544c-2.978 2.768-7.636 2.597-10.404-.381-2.768-2.979-2.597-7.636.381-10.404s7.636-2.597 10.404.381 2.597 7.636-.381 10.404zm49.662-42.715c2.768 2.979 2.597 7.636-.381 10.404s-7.636 2.597-10.404-.381c-2.768-2.979-2.597-7.636.381-10.404 2.978-2.767 7.636-2.597 10.404.381zm-65.695-151.372c2.978-2.768 7.636-2.597 10.404.381 2.768 2.979 2.597 7.636-.381 10.404s-7.636 2.597-10.404-.381c-2.767-2.978-2.597-7.636.381-10.404zm-195.606 38.098c2.978-2.768 7.636-2.597 10.404.381 2.768 2.979 2.597 7.636-.381 10.404s-7.636 2.597-10.404-.381c-2.767-2.978-2.597-7.636.381-10.404zm16.471 62.007c-2.978 2.768-7.636 2.598-10.404-.381-2.768-2.978-2.597-7.636.381-10.404s7.636-2.597 10.404.381 2.597 7.636-.381 10.404z" fill="#6c53a2"/><g fill="#9175a7"><path d="m394.935 122.809c0 6.452-5.23 11.683-11.682 11.683h-.556s7.408 24.048 11.784 31.124c.905 1.463 1.821 2.931 2.723 4.41 4.782 7.835 9.159 16.012 9.159 25.846 0 9.916-3.237 19.073-8.706 26.483-8.131 11.017-21.2 18.166-35.943 18.166-3.974 0-7.825-.526-11.492-1.5-7.096-1.885-13.496-5.472-18.739-10.299-8.861-8.16-14.417-19.854-14.417-32.849 0-11.69 6.182-21.041 11.883-30.256.538-.87 1.122-1.999 1.733-3.305 1.401-3 2.942-6.947 4.387-10.925 3.046-8.385 5.669-16.894 5.669-16.894h-.561c-6.452 0-11.682-5.23-11.682-11.683 0-.143.021-.27.027-.407.289-6.079 6.843-7.195 11.655-11.275.228-.193.393-.576.515-1.043-15.099 3.764-28.628 11.486-39.426 22.004-.181-1.488-.809-2.935-1.907-4.117-2.768-2.978-7.426-3.148-10.404-.381-2.978 2.768-3.149 7.426-.381 10.404 1.411 1.519 3.314 2.303 5.235 2.344-11.732 14.783-18.742 33.481-18.742 53.82 0 42.729 30.93 78.231 71.621 85.347-1.793 2.763-1.565 6.487.78 9.01 2.768 2.978 7.426 3.149 10.404.381 2.291-2.129 2.913-5.374 1.822-8.115.672.016 1.345.026 2.021.026 47.854 0 86.648-38.794 86.648-86.648 0-40.604-27.93-74.679-65.625-84.074.122.467.287.85.515 1.043 4.92 4.17 11.682 5.227 11.682 11.68z"/><path d="m237.389 148.499c2.978-2.768 3.149-7.426.381-10.404s-7.426-3.148-10.404-.381c-2.978 2.768-3.149 7.426-.381 10.404s7.426 3.149 10.404.381z"/><path d="m233.814 188.936c-2.978 2.768-3.149 7.426-.381 10.404 2.768 2.979 7.426 3.149 10.404.381s3.149-7.426.381-10.404-7.426-3.149-10.404-.381z"/><path d="m205.12 115.833c2.876-2.673 3.125-7.105.646-10.088-.088-.105-.17-.214-.265-.315-2.768-2.979-7.426-3.149-10.404-.381s-3.149 7.426-.381 10.404c1.307 1.407 3.037 2.179 4.811 2.319 1.983.155 4.022-.479 5.593-1.939z"/><path d="m160.229 78.83c2.978-2.768 3.149-7.426.381-10.404s-7.426-3.148-10.404-.381c-.65.604-1.158 1.302-1.539 2.049l6.173 10.691c1.917.098 3.871-.545 5.389-1.955z"/><path d="m152.081 31.381c2.768 2.979 7.426 3.149 10.404.381s3.149-7.426.381-10.404c-1.108-1.191-2.519-1.926-4.003-2.21-.032-.006-.063-.012-.095-.017-2.494 1.025-4.974 2.079-7.428 3.179-.018.027-.035.055-.053.083-1.777 2.761-1.544 6.472.794 8.988z"/><path d="m242.236 70.665c2.978-2.768 3.149-7.426.381-10.404-.008-.009-.017-.016-.025-.024-2.771-2.954-7.41-3.117-10.379-.357-2.978 2.768-3.149 7.426-.381 10.404.055.059.115.11.171.167 2.785 2.809 7.313 2.927 10.233.214z"/><path d="m208.894 44.326c2.978-2.768 3.149-7.426.381-10.404-2.768-2.979-7.426-3.149-10.404-.381s-3.149 7.426-.381 10.404 7.426 3.148 10.404.381z"/><path d="m222.671 8.64c2.768 2.978 7.426 3.149 10.404.381 2.3-2.138 2.918-5.4 1.808-8.148-4.729.386-9.421.906-14.074 1.546-.001.003-.001.007-.002.01-.357 2.17.251 4.475 1.864 6.211z"/><path d="m287.403 24.525c2.978-2.768 3.149-7.426.381-10.404s-7.426-3.148-10.404-.381c-2.978 2.768-3.149 7.426-.381 10.404 2.768 2.979 7.426 3.149 10.404.381z"/><path d="m274.688 248.785c-2.978 2.768-3.149 7.426-.381 10.404s7.426 3.149 10.404.381 3.149-7.426.381-10.404-7.426-3.149-10.404-.381z"/><path d="m459.37 230.944c2.978-2.768 3.149-7.426.381-10.404s-7.426-3.148-10.404-.381c-2.978 2.768-3.149 7.426-.381 10.404 2.768 2.979 7.426 3.149 10.404.381z"/><path d="m428.982 282.918c-2.978 2.768-3.149 7.426-.381 10.404s7.426 3.148 10.404.381c2.978-2.768 3.149-7.426.381-10.404s-7.426-3.149-10.404-.381z"/><path d="m484.995 313.251c-2.978 2.768-3.149 7.426-.381 10.404.163.175.333.339.508.494 2.803 2.492 7.093 2.492 9.896-.113 2.978-2.768 3.149-7.426.381-10.404-.013-.014-.028-.026-.041-.04-2.772-2.937-7.399-3.095-10.363-.341z"/><path d="m477.882 261.012c2.768 2.978 7.426 3.148 10.404.381 2.978-2.768 3.149-7.426.381-10.404s-7.426-3.148-10.404-.381-3.148 7.425-.381 10.404z"/><path d="m448.866 386.276c2.978-2.768 3.149-7.426.381-10.404s-7.426-3.148-10.404-.381c-2.978 2.768-3.149 7.426-.381 10.404 2.768 2.979 7.426 3.149 10.404.381z"/><path d="m350.285 355.327c-2.978 2.768-3.149 7.426-.381 10.404 2.768 2.979 7.426 3.149 10.404.381s3.149-7.426.381-10.404c-2.768-2.979-7.426-3.149-10.404-.381z"/><path d="m300.105 319.919c2.978-2.768 3.149-7.426.381-10.404s-7.426-3.148-10.404-.381c-.84.78-1.448 1.713-1.838 2.714l5.746 9.952c2.142.324 4.405-.292 6.115-1.881z"/><path d="m432.995 110.401c2.978-2.768 3.149-7.426.381-10.404s-7.426-3.148-10.404-.381c-2.978 2.768-3.149 7.426-.381 10.404 2.768 2.979 7.426 3.149 10.404.381z"/><path d="m477.662 142.888c-2.978 2.768-3.149 7.426-.381 10.404s7.426 3.149 10.404.381c.839-.78 1.447-1.712 1.837-2.712-1.474-3.271-3.025-6.499-4.63-9.695-2.443-.771-5.219-.247-7.23 1.622z"/><path d="m306.105 79.477c2.978-2.768 3.149-7.426.381-10.404s-7.426-3.149-10.404-.381-3.149 7.426-.381 10.404 7.426 3.148 10.404.381z"/><path d="m370.686 29.902c-2.978 2.768-3.149 7.426-.381 10.404s7.426 3.148 10.404.381c2.01-1.868 2.735-4.595 2.148-7.087-3.171-1.812-6.384-3.558-9.638-5.237-.913.325-1.777.837-2.533 1.539z"/><path d="m394.455 336.996c-2.978 2.768-3.149 7.426-.381 10.404s7.426 3.148 10.404.381c2.978-2.768 3.149-7.426.381-10.404-2.768-2.979-7.426-3.149-10.404-.381z"/><path d="m402.578 400.874c-2.768-2.978-7.426-3.148-10.404-.381-2.978 2.768-3.149 7.426-.381 10.404s7.426 3.148 10.404.381c2.978-2.768 3.149-7.425.381-10.404z"/></g><path d="m74.859 408.17v-56.657c-2.627-1.425-4.412-4.207-4.412-7.406 0-4.65 3.77-8.42 8.42-8.42.148 0 .292.015.439.022l-21.977-37.448c-2.673-4.555-3.222-8.671-1.955-11.634 1.243-2.909 4.235-4.708 8.706-4.708h51.509 47.424 3.316c4.47 0 9.574 1.799 14.231 4.708 4.746 2.963 9.028 7.08 11.701 11.634l22.468 38.285c1.115-.545 2.363-.859 3.687-.859.43 0 .85.043 1.263.105 4.049.611 7.157 4.095 7.157 8.315 0 2.863-1.432 5.388-3.615 6.909l13.819 23.546c2.673 4.555 3.222 8.671 1.955 11.635-1.244 2.909-4.235 4.707-8.706 4.707h-7.864v17.266h121.431l-22.74-39.387-27.126-46.983-5.746-9.952-28.991-50.214c-1.634 18.46-11.172 29.047-19.293 34.794-10.308 7.295-22.34 9.894-30.163 9.894-1.933 0-3.5-1.567-3.5-3.5s1.567-3.5 3.5-3.5c11.877 0 42.703-7.782 42.703-43.321v-6.062l-62.314-107.932-35.346-61.222-6.173-10.691-20.667-35.797c-5.68 3.279-11.185 6.746-16.515 10.382-.235.161-.468.326-.703.487-1.33.914-2.646 1.841-3.954 2.776-.958.688-1.911 1.384-2.859 2.085-.543.399-1.086.8-1.625 1.203-13.76 10.344-26.434 22.047-37.844 34.9.832.247 1.573.806 2.026 1.626 0 0 .001.001.001.001s0 0 .001.001c2.124 3.845.797 7.193-.081 9.409-.706 1.78-.909 2.473-.612 3.228.042.108.095.217.158.331.503.909 1.103 1.11 3.255 1.509 2.344.435 5.885 1.092 8.01 4.938s.797 7.194-.081 9.41c-.807 2.034-.957 2.649-.454 3.558.917 1.659.315 3.748-1.344 4.665s-3.748.315-4.665-1.344c-2.125-3.846-.797-7.194.081-9.409.807-2.034.957-2.649.454-3.558s-1.103-1.11-3.255-1.509c-2.344-.435-5.885-1.093-8.01-4.938-.133-.24-.252-.479-.359-.715-1.602-3.545-.384-6.618.44-8.695.806-2.034.956-2.649.454-3.558 0 0 0 0 0-.001-.042-.076-.065-.157-.101-.235-7.646 9.045-14.676 18.624-21.025 28.679.295 1.952.495 2.547 1.348 3.061.89.536 1.51.409 3.573-.32 2.247-.795 5.643-1.997 9.406.271s4.287 5.832 4.634 8.189c.318 2.165.496 2.772 1.386 3.309 1.624.979 2.147 3.088 1.168 4.711-.978 1.624-3.088 2.147-4.712 1.168-3.763-2.268-4.287-5.832-4.634-8.189-.318-2.165-.496-2.772-1.386-3.309-.89-.536-1.51-.409-3.573.32-2.247.795-5.643 1.997-9.406-.271-.49-.295-.922-.613-1.309-.947-.314-.271-.593-.553-.847-.842-.257.438-.52.871-.774 1.31-.783 1.358-1.552 2.724-2.309 4.095-.15.27-.303.538-.452.809-2.225 4.065-4.324 8.192-6.321 12.363-.123.256-.242.514-.364.77-.413.871-.831 1.739-1.234 2.614 1.501.99 2.544 2.302 3.357 3.328 1.358 1.716 1.816 2.153 2.855 2.173s1.513-.401 2.934-2.064c1.549-1.812 3.889-4.55 8.282-4.468 4.393.083 6.628 2.907 8.108 4.775 1.358 1.715 1.816 2.153 2.854 2.172 1.895.036 3.403 1.601 3.368 3.496-.036 1.896-1.601 3.403-3.496 3.368-4.393-.082-6.629-2.906-8.108-4.775-1.358-1.715-1.816-2.153-2.854-2.172-1.039-.019-1.513.401-2.934 2.064-1.549 1.812-3.889 4.55-8.282 4.468s-6.629-2.906-8.108-4.775c-.342-.432-.626-.782-.878-1.065-.048.112-.092.226-.14.338-9.485 22.268-15.788 45.791-18.707 69.817-.08.669-.155 1.34-.23 2.011-.133 1.17-.259 2.342-.376 3.514-.156 1.602-.301 3.207-.428 4.817-.023.283-.048.566-.07.85-.485 6.433-.734 12.934-.734 19.493 0 19.822 2.255 39.118 6.519 57.646.067.287.138.574.206.861.383 1.64.781 3.274 1.196 4.902.244.953.502 1.905.758 2.856.255.956.509 1.912.775 2.863.454 1.613.925 3.224 1.412 4.833.086.286.169.574.256.859 2.652 8.651 5.8 17.222 9.424 25.684.266.622.538 1.243.81 1.864.471 1.076.941 2.152 1.428 3.224.666 1.466 1.343 2.929 2.038 4.387.123.257.241.516.365.773 2.798 5.815 5.832 11.569 9.111 17.249s6.745 11.185 10.382 16.516c.161.235.326.468.487.703.914 1.33 1.841 2.646 2.776 3.954.688.958 1.384 1.911 2.085 2.859.034.046.069.092.103.139h24.728zm17.047-193.2c1.812 1.549 4.55 3.889 4.468 8.282s-2.906 6.629-4.775 8.108c-1.715 1.358-2.153 1.816-2.173 2.854v.001c-.036 1.895-1.601 3.403-3.496 3.367-1.895-.035-3.403-1.601-3.367-3.496.083-4.393 2.906-6.629 4.775-8.108 1.716-1.358 2.153-1.816 2.173-2.855.019-1.039-.401-1.513-2.064-2.934-1.812-1.549-4.55-3.889-4.468-8.282s2.907-6.629 4.775-8.108c1.715-1.358 2.153-1.816 2.172-2.854.036-1.896 1.601-3.403 3.496-3.368 1.895.036 3.403 1.601 3.368 3.496-.082 4.393-2.906 6.629-4.775 8.108-1.715 1.358-2.153 1.816-2.172 2.854-.021 1.039.399 1.513 2.063 2.935zm29.865 14.819c-2.124-3.845-.797-7.193.081-9.409.807-2.034.957-2.649.454-3.559s-1.103-1.11-3.255-1.509c-2.344-.435-5.885-1.093-8.01-4.938-2.125-3.846-.797-7.194.081-9.409.807-2.034.957-2.649.454-3.558-.917-1.659-.315-3.748 1.344-4.665s3.748-.315 4.665 1.344c2.125 3.846.797 7.194-.081 9.41-.807 2.034-.957 2.649-.454 3.558s1.103 1.109 3.255 1.509c2.344.436 5.885 1.093 8.01 4.938.186.337.338.669.474.999 1.413 3.424.247 6.39-.555 8.411-.806 2.034-.956 2.649-.454 3.558v.001c.917 1.659.315 3.748-1.344 4.665s-3.746.315-4.664-1.343c0 0-.001 0-.001-.001s0-.001 0-.002zm31.807-23.324c-3.763-2.268-4.287-5.832-4.634-8.189-.318-2.165-.496-2.773-1.386-3.309-.89-.537-1.51-.41-3.573.32-2.247.795-5.643 1.996-9.406-.271-3.763-2.268-4.287-5.832-4.634-8.19-.318-2.165-.496-2.772-1.386-3.308-1.624-.979-2.147-3.088-1.168-4.712.978-1.624 3.088-2.146 4.712-1.168 3.763 2.268 4.287 5.831 4.634 8.189.318 2.165.496 2.772 1.386 3.308.89.537 1.51.41 3.573-.32 2.247-.795 5.643-1.996 9.406.271.49.295.922.613 1.309.947 2.585 2.229 3.024 5.192 3.325 7.243.319 2.165.497 2.772 1.386 3.309h.001c1.624.979 2.147 3.088 1.168 4.712-.978 1.623-3.087 2.146-4.711 1.168-.001 0-.001 0-.002 0zm-6.167-43.384c1.039.02 1.513-.4 2.934-2.064 1.549-1.812 3.889-4.55 8.282-4.468.275.005.541.021.799.046 3.871.385 5.923 2.977 7.31 4.729 1.358 1.715 1.816 2.153 2.854 2.172h.001c1.895.035 3.403 1.601 3.368 3.496-.036 1.895-1.6 3.403-3.496 3.367 0 0 0 0-.001 0-4.393-.083-6.629-2.907-8.108-4.775-1.358-1.715-1.816-2.153-2.855-2.172-1.039-.02-1.513.4-2.934 2.064-1.549 1.812-3.889 4.55-8.282 4.468s-6.629-2.906-8.108-4.775c-1.358-1.716-1.816-2.153-2.854-2.173-1.895-.035-3.403-1.601-3.368-3.496s1.601-3.403 3.496-3.368c4.393.083 6.628 2.907 8.108 4.775 1.358 1.717 1.816 2.155 2.854 2.174zm14.433-37.937c.001 0 .001 0 0 0 1.66-.917 3.748-.315 4.665 1.344s.315 3.746-1.343 4.664c0 0-.001 0-.001.001h-.001c-3.845 2.125-7.193.797-9.409-.082-1.78-.706-2.473-.909-3.228-.612-.108.042-.217.095-.331.158-.909.502-1.11 1.103-1.509 3.255-.435 2.343-1.093 5.885-4.938 8.01-3.846 2.125-7.194.797-9.409-.082-2.034-.807-2.649-.957-3.558-.454-1.659.917-3.748.315-4.665-1.344s-.315-3.748 1.344-4.665c3.846-2.125 7.194-.797 9.409.082 2.034.807 2.649.957 3.558.454.909-.502 1.11-1.103 1.509-3.254.435-2.344 1.093-5.885 4.938-8.01 3.846-2.125 7.194-.798 9.41.081 2.035.806 2.65.956 3.559.454zm-48.832-4.323c2.268-3.764 5.831-4.288 8.19-4.634 2.165-.318 2.772-.496 3.308-1.386s.409-1.51-.32-3.573c-.795-2.247-1.996-5.643.272-9.406.295-.49.613-.922.947-1.309 2.229-2.585 5.192-3.023 7.243-3.325 2.165-.319 2.773-.497 3.309-1.386.978-1.624 3.088-2.146 4.712-1.168 1.623.979 2.147 3.087 1.169 4.711v.001c-2.268 3.763-5.831 4.287-8.19 4.634-1.624.239-2.372.399-2.87.839-.013.012-.024.027-.037.039-.149.14-.279.304-.402.508-.536.89-.409 1.51.32 3.573.795 2.247 1.996 5.643-.272 9.406s-5.831 4.287-8.19 4.634c-2.165.318-2.772.496-3.308 1.385-.978 1.624-3.088 2.147-4.712 1.168-1.624-.978-2.147-3.087-1.169-4.711zm-16.728-12.455c1.715-1.358 2.153-1.816 2.172-2.854s-.401-1.512-2.064-2.934c-1.812-1.549-4.55-3.889-4.468-8.282s2.906-6.629 4.775-8.108c1.715-1.358 2.153-1.816 2.173-2.855.036-1.896 1.601-3.403 3.496-3.368 1.895.036 3.403 1.601 3.367 3.496v.001c-.082 4.393-2.906 6.629-4.775 8.108-1.716 1.358-2.153 1.816-2.173 2.855-.019 1.039.401 1.513 2.064 2.935 1.812 1.548 4.55 3.889 4.468 8.282s-2.907 6.628-4.775 8.108c-1.715 1.358-2.153 1.816-2.172 2.854-.036 1.895-1.601 3.403-3.496 3.368-1.895-.036-3.403-1.601-3.368-3.497.083-4.394 2.907-6.629 4.776-8.109zm-1.539 18.601c17.567.329 31.54 14.836 31.211 32.403-.329 17.566-14.837 31.54-32.403 31.211s-31.54-14.837-31.211-32.403c.329-17.567 14.837-31.541 32.403-31.211zm-28.647 67.602c2.165-.318 2.772-.496 3.308-1.386.978-1.624 3.088-2.146 4.712-1.168 1.624.979 2.147 3.088 1.168 4.712-2.268 3.763-5.831 4.287-8.19 4.634-2.165.318-2.772.496-3.308 1.385-.536.89-.409 1.51.32 3.573.795 2.248 1.996 5.643-.272 9.406-.295.49-.613.922-.947 1.31-2.229 2.585-5.192 3.023-7.243 3.325-2.165.318-2.773.497-3.309 1.386v.001c-.978 1.624-3.088 2.146-4.712 1.168-1.623-.979-2.147-3.087-1.169-4.711 2.268-3.763 5.831-4.288 8.19-4.635 1.624-.239 2.372-.398 2.87-.839.013-.012.024-.027.037-.039.149-.14.279-.303.402-.508.536-.89.409-1.51-.32-3.573-.795-2.248-1.996-5.643.272-9.406 2.269-3.765 5.832-4.288 8.191-4.635zm-42.965-8.173c3.846-2.125 7.194-.797 9.41.081 1.78.706 2.473.909 3.228.612.108-.042.217-.095.331-.158.909-.502 1.11-1.103 1.509-3.254.435-2.344 1.093-5.885 4.938-8.01 3.846-2.125 7.194-.797 9.409.082 2.034.806 2.649.957 3.558.454 1.659-.917 3.748-.315 4.665 1.344s.315 3.748-1.344 4.664c-3.846 2.125-7.194.797-9.409-.081-2.034-.807-2.649-.957-3.558-.455s-1.11 1.104-1.509 3.255c-.435 2.344-1.093 5.885-4.938 8.01-.24.133-.479.252-.715.359-3.545 1.602-6.617.384-8.695-.44-2.034-.806-2.649-.957-3.558-.454 0 0 0 0-.001 0-1.659.917-3.748.315-4.665-1.344s-.315-3.747 1.343-4.664c0-.001 0-.001.001-.001z" fill="#22bce0"/><path d="m128.04 390.905c-4.47 0-9.574-1.798-14.231-4.707-4.745-2.964-9.028-7.08-11.701-11.635l-15.693-26.741c-.772 1.565-2.008 2.861-3.539 3.691v11.788 44.869h131.534v-17.266h-86.37z" fill="#22bce0"/><path d="m369.861 453.213h-11.136c-1.933 0-3.5-1.567-3.5-3.5s1.567-3.5 3.5-3.5h7.095l-6.642-11.505h-41.668c-1.933 0-3.5-1.567-3.5-3.5s1.567-3.5 3.5-3.5h37.627l-11.28-19.538h-121.433v1.964 2.363c0 2.213-1.794 4.008-4.008 4.008-2.214 0-4.008-1.794-4.008-4.008v-4.328h-131.533v1.964 2.363c0 2.213-1.794 4.008-4.008 4.008s-4.008-1.794-4.008-4.008v-4.328h-24.728c.366.496.731.993 1.1 1.486 19.569 26.036 43.983 48.223 71.91 65.211.26.158.523.311.785.468 1.344.811 2.695 1.61 4.055 2.397 1.004.579 2.015 1.142 3.025 1.706h25.177c1.933 0 3.5 1.567 3.5 3.5s-1.567 3.5-3.5 3.5h-11.732c.265.128.532.25.798.376.257.124.516.243.774.365 1.456.691 2.915 1.374 4.383 2.037 1.074.485 2.151.962 3.231 1.432.619.27 1.237.542 1.858.807 22.269 9.485 45.792 15.789 69.82 18.708.669.08 1.34.155 2.011.23 1.17.133 2.341.259 3.514.375 1.602.156 3.207.301 4.817.428.283.022.567.048.85.07 6.433.487 12.934.736 19.493.736 19.821 0 39.116-2.255 57.643-6.518.291-.067.581-.14.871-.208 1.637-.383 3.269-.78 4.894-1.194.953-.244 1.905-.502 2.856-.758.956-.255 1.912-.509 2.864-.775 1.613-.454 3.224-.925 4.832-1.412.286-.086.574-.168.86-.255 4.703-1.441 9.38-3.042 14.031-4.769h-35.571c-1.933 0-3.5-1.567-3.5-3.5s1.567-3.5 3.5-3.5h49.444c.697 0 1.342.209 1.888.561.328-.147.654-.306.982-.455 1.464-.665 2.926-1.341 4.383-2.037.258-.123.516-.241.774-.365 5.815-2.797 11.569-5.832 17.249-9.111zm-197.184-25.505h49.444c1.933 0 3.5 1.567 3.5 3.5s-1.567 3.5-3.5 3.5h-49.444c-1.933 0-3.5-1.567-3.5-3.5s1.567-3.5 3.5-3.5zm-100.231 1.509c0-1.933 1.567-3.5 3.5-3.5h49.444c1.933 0 3.5 1.567 3.5 3.5s-1.567 3.5-3.5 3.5h-49.444c-1.933 0-3.5-1.568-3.5-3.5zm59.015 23.996c-1.933 0-3.5-1.567-3.5-3.5s1.567-3.5 3.5-3.5h49.444c1.933 0 3.5 1.567 3.5 3.5s-1.567 3.5-3.5 3.5zm98.889 42.897h-49.444c-1.933 0-3.5-1.567-3.5-3.5s1.567-3.5 3.5-3.5h49.444c1.933 0 3.5 1.567 3.5 3.5s-1.567 3.5-3.5 3.5zm5.65-27.089h-49.444c-1.933 0-3.5-1.567-3.5-3.5s1.567-3.5 3.5-3.5h49.444c1.933 0 3.5 1.567 3.5 3.5s-1.567 3.5-3.5 3.5zm6.593-17.808c-1.933 0-3.5-1.567-3.5-3.5s1.567-3.5 3.5-3.5h49.444c1.933 0 3.5 1.567 3.5 3.5s-1.567 3.5-3.5 3.5zm110.481 17.808h-49.444c-1.933 0-3.5-1.567-3.5-3.5s1.567-3.5 3.5-3.5h49.444c1.933 0 3.5 1.567 3.5 3.5s-1.567 3.5-3.5 3.5z" fill="#53b976"/><path d="m236 462.021h-49.444c-1.933 0-3.5 1.567-3.5 3.5s1.567 3.5 3.5 3.5h49.444c1.933 0 3.5-1.567 3.5-3.5s-1.567-3.5-3.5-3.5z" fill="#78c795"/><path d="m184.406 449.713c0-1.933-1.567-3.5-3.5-3.5h-49.444c-1.933 0-3.5 1.567-3.5 3.5s1.567 3.5 3.5 3.5h49.444c1.933 0 3.5-1.567 3.5-3.5z" fill="#78c795"/><path d="m295.537 447.713c0-1.933-1.567-3.5-3.5-3.5h-49.444c-1.933 0-3.5 1.567-3.5 3.5s1.567 3.5 3.5 3.5h49.444c1.933 0 3.5-1.567 3.5-3.5z" fill="#78c795"/><path d="m172.677 434.708h49.444c1.933 0 3.5-1.567 3.5-3.5s-1.567-3.5-3.5-3.5h-49.444c-1.933 0-3.5 1.567-3.5 3.5s1.567 3.5 3.5 3.5z" fill="#78c795"/><path d="m128.891 429.217c0-1.933-1.567-3.5-3.5-3.5h-49.445c-1.933 0-3.5 1.567-3.5 3.5s1.567 3.5 3.5 3.5h49.444c1.934 0 3.501-1.568 3.501-3.5z" fill="#78c795"/><path d="m156.184 486.438c1.933 0 3.5-1.567 3.5-3.5s-1.567-3.5-3.5-3.5h-25.177c.359.2.714.407 1.074.605.269.149.536.302.806.451 3.807 2.083 7.665 4.061 11.565 5.944z" fill="#78c795"/><path d="m230.35 489.11h-49.444c-1.933 0-3.5 1.567-3.5 3.5s1.567 3.5 3.5 3.5h49.444c1.933 0 3.5-1.567 3.5-3.5s-1.567-3.5-3.5-3.5z" fill="#78c795"/><path d="m353.074 462.021h-49.444c-1.933 0-3.5 1.567-3.5 3.5s1.567 3.5 3.5 3.5h49.444c1.933 0 3.5-1.567 3.5-3.5s-1.567-3.5-3.5-3.5z" fill="#78c795"/><path d="m355.225 449.713c0 1.933 1.567 3.5 3.5 3.5h11.136l-4.041-7h-7.095c-1.933 0-3.5 1.567-3.5 3.5z" fill="#78c795"/><path d="m314.009 431.208c0 1.933 1.567 3.5 3.5 3.5h41.668l-4.041-7h-37.627c-1.933 0-3.5 1.567-3.5 3.5z" fill="#78c795"/><path d="m358.725 489.11h-49.445c-1.933 0-3.5 1.567-3.5 3.5s1.567 3.5 3.5 3.5h35.571c3.906-1.451 7.791-3.001 11.654-4.656.62-.266 1.239-.536 1.858-.807.749-.328 1.502-.641 2.249-.977-.545-.35-1.191-.56-1.887-.56z" fill="#78c795"/><path d="m216.794 410.988c.525.103 1.067.16 1.622.16.58 0 1.146-.059 1.693-.171v-20.073h-3.315z" fill="#334353"/><path d="m220.11 390.905v20.073c.821-.167 1.599-.455 2.315-.843v-1.964-17.266z" fill="#3e4e60"/><path d="m218.416 411.148c-.555 0-1.097-.057-1.622-.16v-20.083h-2.386v17.266 4.328c0 2.213 1.794 4.008 4.008 4.008 2.214 0 4.008-1.794 4.008-4.008v-2.363c-.715.388-1.493.675-2.315.843-.546.11-1.113.169-1.693.169z" fill="#2e3140"/><path d="m215.47 337.81c.837-.742 1.821-1.321 2.905-1.685-.012-.004-.024-.01-.037-.014-.001 0-.002 0-.003.001l-.001-.002c.001 0 .003.001.004.001.432-.143.88-.248 1.34-.319-.413-.062-.832-.105-1.263-.105-1.324 0-2.573.314-3.687.859z" fill="#2d2c33"/><path d="m224.121 344.107c0-3.715-2.407-6.864-5.746-7.982-1.084.363-2.068.943-2.905 1.685l6.789 11.567c1.162-1.442 1.862-3.273 1.862-5.27z" fill="#2e3140"/><path d="m218.336 336.113.003-.001-.004-.002z" fill="#3e4e60"/><path d="m218.376 336.125c3.338 1.118 5.746 4.267 5.746 7.982 0 1.997-.7 3.827-1.862 5.27l.962 1.639c2.183-1.521 3.615-4.046 3.615-6.909 0-4.22-3.108-7.704-7.157-8.315-.459.072-.908.177-1.34.319.011.005.023.01.036.014z" fill="#3e4e60"/><path d="m67.075 298.262 3.405 5.801-6.642-11.318c-.94-1.602-.833-2.977.084-3.674.4-.304.938-.493 1.638-.493h10.59 15.48c.699 0 1.459.189 2.216.493 1.735.697 3.456 2.072 4.396 3.674l11.418 19.456c.94 1.602.833 2.977-.084 3.674-.4.304-.938.493-1.638.493h-15.48-10.591c-.699 0-1.459-.189-2.216-.493-1.735-.697-3.456-2.072-4.396-3.674l36.599 62.362c2.673 4.555 3.222 8.671 1.955 11.635 4.657 2.909 9.761 4.707 14.231 4.707h86.369 2.386 3.315 2.315 7.864c4.47 0 7.462-1.798 8.706-4.707-4.746-2.964-9.028-7.08-11.701-11.635l-16.68-28.422c.94 1.602.832 2.977-.084 3.674-.4.304-.938.493-1.638.493h-10.591-15.48c-.699 0-1.459-.188-2.216-.493-1.735-.697-3.456-2.072-4.396-3.674l-11.418-19.456c-.94-1.602-.833-2.977.084-3.674.4-.305.938-.493 1.638-.493h15.48 10.591c.699 0 1.459.189 2.216.493 1.735.697 3.456 2.072 4.396 3.674l5.709 9.728-18.985-32.349 4.775 8.137c.94 1.602.833 2.977-.084 3.674-.4.304-.938.493-1.638.493h-10.591-15.48c-.699 0-1.459-.189-2.216-.493-1.735-.697-3.456-2.072-4.396-3.674l-11.418-19.456c-.94-1.602-.833-2.977.084-3.674.4-.304.938-.493 1.638-.493h-3.854-6.738-3.854c.699 0 1.459.189 2.216.493 1.735.697 3.456 2.072 4.396 3.674l11.418 19.456c.94 1.602.833 2.977-.084 3.674-.4.304-.938.493-1.638.493h-10.591-4.889-10.591c-.699 0-1.459-.189-2.216-.493-1.735-.697-3.456-2.072-4.396-3.674l-11.418-19.456c-.94-1.602-.833-2.977.084-3.674.4-.304.938-.493 1.638-.493h10.591 2.829c-1.839 0-4.204-1.49-5.283-3.329s-.463-3.329 1.375-3.329h-51.51c-4.47 0-7.462 1.799-8.706 4.708 4.746 2.963 9.029 7.08 11.702 11.634zm28.099 47.879-11.418-19.456c-.94-1.602-.833-2.977.084-3.674.4-.304.938-.493 1.638-.493h10.591 15.48c.699 0 1.459.189 2.216.493 1.735.697 3.456 2.072 4.396 3.674l11.418 19.456c.94 1.602.833 2.977-.084 3.674-.4.304-.938.493-1.638.493h-15.48-10.591c-.699 0-1.459-.188-2.216-.493-1.735-.698-3.456-2.072-4.396-3.674zm37.122 38.106h-10.591c-.699 0-1.459-.188-2.216-.493-1.735-.697-3.456-2.072-4.396-3.674l-11.418-19.455c-.94-1.603-.833-2.977.084-3.674.4-.304.938-.493 1.638-.493h10.591 15.48c.699 0 1.459.188 2.216.493 1.735.698 3.456 2.072 4.396 3.674l11.418 19.455c.94 1.602.833 2.977-.084 3.674-.4.305-.938.493-1.638.493zm45.405 0h-4.889-10.591c-.699 0-1.459-.188-2.216-.493-1.735-.697-3.456-2.072-4.396-3.674l-11.418-19.455c-.94-1.603-.833-2.977.084-3.674.4-.304.938-.493 1.638-.493h10.591 4.889 10.591c.699 0 1.459.188 2.216.493 1.735.698 3.456 2.072 4.396 3.674l11.418 19.455c.94 1.602.833 2.977-.084 3.674-.4.305-.938.493-1.638.493zm24.208-27.789h10.591c.699 0 1.459.188 2.216.493 1.735.698 3.456 2.072 4.396 3.674l11.418 19.455c.94 1.602.833 2.977-.084 3.674-.4.305-.938.493-1.638.493h-10.591-15.48c-.699 0-1.459-.188-2.216-.493-1.735-.697-3.456-2.072-4.396-3.674l-11.418-19.455c-.94-1.603-.833-2.977.084-3.674.4-.304.938-.493 1.638-.493zm-65.324-33.94h4.889 10.591c.699 0 1.459.189 2.216.493 1.735.697 3.456 2.072 4.396 3.674l11.418 19.456c.94 1.602.833 2.977-.084 3.674-.4.304-.938.493-1.638.493h-10.591-4.889-10.591c-.699 0-1.459-.188-2.216-.493-1.735-.697-3.456-2.072-4.396-3.674l-11.418-19.456c-.94-1.602-.833-2.977.084-3.674.4-.304.938-.493 1.638-.493z" fill="#c1b7d3"/><path d="m168.295 285.25c1.079 1.838.463 3.329-1.375 3.329h5.744c.699 0 1.459.189 2.216.493 1.735.697 3.456 2.072 4.396 3.674l3.238 5.517c-2.673-4.555-3.221-8.671-1.954-11.634-4.657-2.909-9.761-4.708-14.231-4.708h-3.316c1.838-.001 4.203 1.49 5.282 3.329z" fill="#c1b7d3"/><path d="m87.286 344.107c0 1.335-.319 2.593-.872 3.715l15.693 26.741c2.673 4.555 6.956 8.671 11.701 11.635 1.267-2.964.719-7.08-1.955-11.635l-36.599-62.362-4.775-8.137-3.405-5.801c-2.673-4.555-6.956-8.671-11.701-11.634-1.267 2.963-.719 7.08 1.955 11.634l21.977 37.448c.279.014.553.042.824.083 4.05.609 7.157 4.094 7.157 8.313z" fill="#a583bb"/><path d="m182.514 298.262 3.405 5.801 18.985 32.349 5.709 9.728 16.68 28.422c2.673 4.555 6.956 8.671 11.701 11.635 1.267-2.964.719-7.08-1.955-11.635l-13.819-23.546-.962-1.639-6.789-11.567-.741-1.263-22.468-38.285c-2.673-4.555-6.956-8.671-11.701-11.634-1.267 2.963-.719 7.079 1.955 11.634z" fill="#ebd9ea"/><path d="m114.213 285.25c1.079 1.838 3.444 3.329 5.283 3.329h2.06 10.591 3.854 6.738 3.854 15.48 4.847c1.839 0 2.454-1.49 1.375-3.329s-3.444-3.329-5.283-3.329h-47.424c-1.838-.001-2.454 1.49-1.375 3.329z" fill="#fff"/><path d="m68.317 292.745 11.418 19.456c.94 1.602.833 2.977-.084 3.674.757.304 1.517.493 2.216.493h10.591 15.48c.699 0 1.237-.189 1.638-.493-1.735-.697-3.456-2.072-4.396-3.674l-11.418-19.456c-.94-1.602-.833-2.977.084-3.674-.757-.304-1.517-.493-2.216-.493h-15.48-10.591c-.699 0-1.237.189-1.638.493 1.735.698 3.456 2.072 4.396 3.674z" fill="#2e3140"/><path d="m79.651 315.875c.917-.697 1.024-2.072.084-3.674l-11.418-19.456c-.94-1.602-2.661-2.977-4.396-3.674-.917.697-1.024 2.072-.084 3.674l6.642 11.318 4.775 8.137c.941 1.603 2.662 2.977 4.397 3.675z" fill="#3e4e60"/><path d="m93.763 292.745 11.418 19.456c.94 1.602 2.661 2.977 4.396 3.674.917-.697 1.024-2.072.084-3.674l-11.418-19.456c-.94-1.602-2.661-2.977-4.396-3.674-.917.698-1.025 2.072-.084 3.674z" fill="#151516"/><path d="m119.496 288.578h-2.829-10.591c-.699 0-1.237.189-1.638.493 1.735.697 3.456 2.072 4.396 3.674l11.418 19.456c.94 1.602.833 2.977-.084 3.674.757.304 1.517.493 2.216.493h10.591 4.889 10.591c.699 0 1.237-.189 1.638-.493-1.735-.697-3.456-2.072-4.396-3.674l-11.418-19.456c-.94-1.602-.833-2.977.084-3.674-.757-.304-1.517-.493-2.216-.493h-10.591z" fill="#2e3140"/><path d="m120.252 312.201-11.418-19.456c-.94-1.602-2.661-2.977-4.396-3.674-.917.697-1.024 2.072-.084 3.674l11.418 19.456c.94 1.602 2.661 2.977 4.396 3.674.917-.698 1.024-2.072.084-3.674z" fill="#3e4e60"/><path d="m134.279 292.745 11.418 19.456c.94 1.602 2.661 2.977 4.396 3.674.917-.697 1.024-2.072.084-3.674l-11.418-19.456c-.94-1.602-2.661-2.977-4.396-3.674-.917.698-1.024 2.072-.084 3.674z" fill="#151516"/><path d="m186.214 312.201-11.418-19.456c-.94-1.602-.833-2.977.084-3.674-.757-.304-1.517-.493-2.216-.493h-5.744-4.847-15.48c-.699 0-1.237.189-1.638.493 1.735.697 3.456 2.072 4.396 3.674l11.418 19.456c.94 1.602.833 2.977-.084 3.674.757.304 1.517.493 2.216.493h15.48 10.591c.699 0 1.237-.189 1.638-.493-1.735-.698-3.456-2.072-4.396-3.674z" fill="#2e3140"/><path d="m160.768 312.201-11.418-19.456c-.94-1.602-2.661-2.977-4.396-3.674-.917.697-1.024 2.072-.084 3.674l11.418 19.456c.94 1.602 2.661 2.977 4.396 3.674.917-.698 1.025-2.072.084-3.674z" fill="#3e4e60"/><path d="m179.276 292.745c-.94-1.602-2.661-2.977-4.396-3.674-.917.697-1.024 2.072-.084 3.674l11.418 19.456c.94 1.602 2.661 2.977 4.396 3.674.917-.697 1.024-2.072.084-3.674l-4.775-8.137-3.405-5.801z" fill="#151516"/><path d="m88.236 326.685 11.418 19.456c.94 1.602.833 2.977-.084 3.674.757.304 1.517.493 2.216.493h10.591 15.48c.699 0 1.237-.188 1.638-.493-1.735-.697-3.456-2.072-4.396-3.674l-11.418-19.456c-.94-1.602-.833-2.977.084-3.674-.757-.304-1.517-.493-2.216-.493h-15.48-10.592c-.699 0-1.237.189-1.638.493 1.736.697 3.457 2.072 4.397 3.674z" fill="#2e3140"/><path d="m99.654 346.141-11.418-19.456c-.94-1.602-2.661-2.977-4.396-3.674-.917.697-1.024 2.072-.084 3.674l11.418 19.456c.94 1.602 2.661 2.977 4.396 3.674.916-.698 1.024-2.072.084-3.674z" fill="#3e4e60"/><path d="m113.681 326.685 11.418 19.456c.94 1.602 2.661 2.977 4.396 3.674.917-.697 1.024-2.072.084-3.674l-11.418-19.456c-.94-1.602-2.661-2.977-4.396-3.674-.917.697-1.024 2.072-.084 3.674z" fill="#151516"/><path d="m128.752 326.685 11.418 19.456c.94 1.602.833 2.977-.084 3.674.757.304 1.517.493 2.216.493h10.591 4.889 10.591c.699 0 1.237-.188 1.638-.493-1.735-.697-3.456-2.072-4.396-3.674l-11.418-19.456c-.94-1.602-.833-2.977.084-3.674-.757-.304-1.517-.493-2.216-.493h-10.591-4.889-10.591c-.699 0-1.237.189-1.638.493 1.735.697 3.456 2.072 4.396 3.674z" fill="#2e3140"/><path d="m140.17 346.141-11.418-19.456c-.94-1.602-2.661-2.977-4.396-3.674-.917.697-1.024 2.072-.084 3.674l11.418 19.456c.94 1.602 2.661 2.977 4.396 3.674.917-.698 1.024-2.072.084-3.674z" fill="#3e4e60"/><path d="m154.198 326.685 11.418 19.456c.94 1.602 2.661 2.977 4.396 3.674.917-.697 1.024-2.072.084-3.674l-11.418-19.456c-.94-1.602-2.661-2.977-4.396-3.674-.917.697-1.025 2.072-.084 3.674z" fill="#151516"/><path d="m206.132 346.141-11.418-19.456c-.94-1.602-.833-2.977.084-3.674-.757-.304-1.517-.493-2.216-.493h-10.591-15.48c-.699 0-1.237.188-1.638.493 1.735.697 3.456 2.072 4.396 3.674l11.418 19.456c.94 1.602.833 2.977-.084 3.674.757.304 1.517.493 2.216.493h15.48 10.591c.699 0 1.237-.188 1.638-.493-1.735-.698-3.456-2.073-4.396-3.674z" fill="#2e3140"/><path d="m180.687 346.141-11.418-19.456c-.94-1.602-2.661-2.977-4.396-3.674-.917.697-1.024 2.072-.084 3.674l11.418 19.456c.94 1.602 2.661 2.977 4.396 3.674.916-.698 1.024-2.072.084-3.674z" fill="#3e4e60"/><path d="m204.903 336.413-5.709-9.728c-.94-1.602-2.661-2.977-4.396-3.674-.917.697-1.024 2.072-.084 3.674l11.418 19.456c.94 1.602 2.661 2.977 4.396 3.674.917-.697 1.024-2.072.084-3.674z" fill="#151516"/><path d="m145.017 380.08-11.418-19.455c-.94-1.603-.833-2.977.084-3.674-.757-.304-1.517-.493-2.216-.493h-15.48-10.591c-.699 0-1.237.188-1.638.493 1.735.698 3.456 2.072 4.396 3.674l11.418 19.455c.94 1.602.833 2.977-.084 3.674.757.305 1.517.493 2.216.493h10.591 15.48c.699 0 1.237-.188 1.638-.493-1.735-.697-3.456-2.072-4.396-3.674z" fill="#2e3140"/><path d="m119.572 380.08-11.418-19.455c-.94-1.603-2.661-2.977-4.396-3.674-.917.698-1.024 2.072-.084 3.674l11.418 19.455c.94 1.602 2.661 2.977 4.396 3.674.917-.697 1.024-2.072.084-3.674z" fill="#3e4e60"/><path d="m133.599 360.625 11.418 19.455c.94 1.602 2.661 2.977 4.396 3.674.917-.697 1.024-2.072.084-3.674l-11.418-19.455c-.94-1.603-2.661-2.977-4.396-3.674-.916.697-1.024 2.071-.084 3.674z" fill="#151516"/><path d="m185.534 380.08-11.418-19.455c-.94-1.603-.833-2.977.084-3.674-.757-.304-1.517-.493-2.216-.493h-10.591-4.889-10.591c-.699 0-1.237.188-1.638.493 1.735.698 3.456 2.072 4.396 3.674l11.418 19.455c.94 1.602.833 2.977-.084 3.674.757.305 1.517.493 2.216.493h10.591 4.889 10.591c.699 0 1.237-.188 1.638-.493-1.735-.697-3.456-2.072-4.396-3.674z" fill="#2e3140"/><path d="m160.089 380.08-11.418-19.455c-.94-1.603-2.661-2.977-4.396-3.674-.917.698-1.024 2.072-.084 3.674l11.418 19.455c.94 1.602 2.661 2.977 4.396 3.674.916-.697 1.024-2.072.084-3.674z" fill="#3e4e60"/><path d="m174.116 360.625 11.418 19.455c.94 1.602 2.661 2.977 4.396 3.674.917-.697 1.024-2.072.084-3.674l-11.418-19.455c-.94-1.603-2.661-2.977-4.396-3.674-.917.697-1.024 2.071-.084 3.674z" fill="#151516"/><path d="m189.187 360.625 11.418 19.455c.94 1.602.833 2.977-.084 3.674.757.305 1.517.493 2.216.493h15.48 10.591c.699 0 1.237-.188 1.638-.493-1.735-.697-3.456-2.072-4.396-3.674l-11.418-19.455c-.94-1.602-.833-2.977.084-3.674-.757-.304-1.517-.493-2.216-.493h-10.591-15.48c-.699 0-1.237.188-1.638.493 1.735.697 3.456 2.071 4.396 3.674z" fill="#2e3140"/><path d="m200.605 380.08-11.418-19.455c-.94-1.603-2.661-2.977-4.396-3.674-.917.698-1.024 2.072-.084 3.674l11.418 19.455c.94 1.602 2.661 2.977 4.396 3.674.917-.697 1.024-2.072.084-3.674z" fill="#3e4e60"/><path d="m214.633 360.625 11.418 19.455c.94 1.602 2.661 2.977 4.396 3.674.917-.697 1.024-2.072.084-3.674l-11.418-19.455c-.94-1.602-2.661-2.977-4.396-3.674-.917.697-1.025 2.072-.084 3.674z" fill="#151516"/><path d="m77.245 364.155v46.833c.525.103 1.067.16 1.622.16.58 0 1.146-.059 1.693-.171v-46.833c-.547.111-1.113.17-1.693.17-.556.001-1.097-.056-1.622-.159z" fill="#334353"/><path d="m82.875 363.301c-.715.388-1.493.675-2.314.843v46.833c.821-.167 1.599-.455 2.314-.843v-1.964z" fill="#3e4e60"/><path d="m78.867 411.148c-.555 0-1.097-.057-1.622-.16v-46.833c.525.103 1.067.16 1.622.16.58 0 1.146-.059 1.693-.17.821-.168 1.599-.455 2.314-.843v-11.788c-.838.455-1.766.761-2.745.909-.413.062-.832.105-1.263.105-1.451 0-2.816-.367-4.008-1.014v56.657 4.328c0 2.213 1.794 4.008 4.008 4.008s4.008-1.794 4.008-4.008v-2.363c-.715.388-1.493.675-2.314.843-.547.11-1.113.169-1.693.169z" fill="#2e3140"/><path d="m78.867 352.527c.43 0 .85-.042 1.263-.105-.459-.072-.908-.176-1.34-.319.012-.004.024-.01.037-.014-3.338-1.118-5.745-4.268-5.745-7.982 0-3.715 2.407-6.864 5.745-7.982-.012-.004-.024-.01-.037-.014-.001 0-.002 0-.003.001l-.001-.002c.001 0 .003.001.004.001.432-.143.88-.248 1.34-.319-.271-.041-.545-.068-.824-.083-.146-.008-.291-.022-.439-.022-4.65 0-8.42 3.77-8.42 8.42 0 3.199 1.784 5.981 4.412 7.406 1.192.647 2.557 1.014 4.008 1.014z" fill="#2d2c33"/><path d="m84.572 344.107c0-3.715-2.407-6.864-5.746-7.982-3.338 1.118-5.745 4.267-5.745 7.982 0 3.714 2.407 6.864 5.745 7.982 3.338-1.118 5.746-4.267 5.746-7.982z" fill="#2e3140"/><path d="m78.786 336.113.003-.001-.004-.002z" fill="#3e4e60"/><path d="m80.129 335.792c-.459.072-.908.177-1.34.319.012.004.024.009.037.014 3.338 1.118 5.746 4.267 5.746 7.982 0 3.714-2.407 6.864-5.746 7.982-.012.004-.024.01-.037.014.432.143.88.247 1.34.319.98-.147 1.907-.454 2.745-.909 1.531-.83 2.767-2.125 3.539-3.691.553-1.122.872-2.38.872-3.715.001-4.219-3.106-7.704-7.156-8.315z" fill="#3e4e60"/><path d="m93.553 190.581c17.567.329 32.074-13.645 32.403-31.211.329-17.567-13.644-32.074-31.211-32.403-17.567-.33-32.074 13.644-32.403 31.211-.329 17.566 13.644 32.074 31.211 32.403zm1.061-56.618c13.703.257 24.603 11.573 24.346 25.276s-11.573 24.603-25.276 24.346-24.603-11.573-24.346-25.276 11.573-24.603 25.276-24.346z" fill="#f9c744"/><path d="m93.684 183.585c13.703.257 25.019-10.644 25.276-24.346s-10.643-25.019-24.346-25.276-25.019 10.643-25.276 24.346 10.643 25.019 24.346 25.276z" fill="#fad98f"/><path d="m33.167 157.631c-.036 1.896-1.601 3.403-3.496 3.368 4.393.083 6.733-2.656 8.282-4.468 1.422-1.664 1.896-2.083 2.934-2.064 1.038.02 1.496.457 2.854 2.172 1.479 1.869 3.715 4.693 8.108 4.775 1.895.036 3.461-1.472 3.496-3.368.036-1.895-1.472-3.46-3.368-3.496-1.038-.02-1.496-.457-2.854-2.172-1.479-1.869-3.715-4.693-8.108-4.775s-6.733 2.656-8.282 4.468c-1.422 1.664-1.896 2.084-2.934 2.064 1.896.035 3.404 1.6 3.368 3.496z" fill="#f39e22"/><path d="m21.563 156.224c1.479 1.869 3.715 4.692 8.108 4.775-4.393-.083-6.628-2.907-8.108-4.775-.341-.433-.626-.783-.878-1.066v.001c.251.282.536.633.878 1.065z" fill="#f39e22"/><path d="m21.563 156.223c1.479 1.869 3.715 4.693 8.108 4.775 1.895.036 3.461-1.472 3.496-3.368s-1.472-3.461-3.368-3.496c-1.039-.02-1.497-.457-2.855-2.173-.813-1.026-1.856-2.338-3.357-3.328-.272.589-.538 1.182-.805 1.773-.484 1.072-.96 2.147-1.429 3.226-.221.509-.451 1.014-.669 1.524.253.285.537.635.879 1.067z" fill="#f9c744"/><path d="m169.462 170.361.001-.001z" fill="#f39e22"/><path d="m136.449 156.133c-1.895-.035-3.461 1.472-3.496 3.368s1.472 3.461 3.368 3.496c1.038.02 1.496.457 2.854 2.173 1.479 1.869 3.715 4.693 8.108 4.775 4.393.083 6.733-2.656 8.282-4.468 1.422-1.664 1.896-2.083 2.934-2.064-1.895-.036-3.403-1.601-3.368-3.496.036-1.896 1.601-3.403 3.496-3.368-4.393-.083-6.733 2.656-8.282 4.468-1.422 1.664-1.896 2.083-2.934 2.064-1.038-.02-1.496-.457-2.854-2.172-1.48-1.869-3.715-4.693-8.108-4.776z" fill="#f39e22"/><path d="m166.735 161.324c1.358 1.716 1.816 2.153 2.854 2.172-1.037-.019-1.495-.457-2.854-2.172-1.387-1.752-3.438-4.343-7.309-4.729 3.871.386 5.922 2.977 7.309 4.729z" fill="#f39e22"/><path d="m155.131 159.917c-.036 1.895 1.472 3.46 3.368 3.496 1.039.02 1.497.457 2.855 2.172 1.48 1.869 3.716 4.693 8.108 4.775h.001c1.895.036 3.46-1.472 3.496-3.367.036-1.896-1.472-3.461-3.368-3.496h-.001c-1.038-.019-1.496-.457-2.854-2.172-1.387-1.752-3.439-4.343-7.309-4.729-.258-.025-.524-.042-.799-.046-1.896-.036-3.462 1.471-3.497 3.367z" fill="#f9c744"/><path d="m41.909 127.293c-.978 1.624-3.088 2.147-4.712 1.168 3.763 2.268 7.159 1.066 9.406.271 2.063-.729 2.683-.856 3.573-.32.889.536 1.067 1.144 1.386 3.309.347 2.358.871 5.921 4.634 8.189 1.624.979 3.733.456 4.712-1.168.978-1.624.455-3.733-1.168-4.711-.889-.536-1.067-1.144-1.386-3.309-.347-2.358-.871-5.922-4.634-8.189-3.763-2.268-7.159-1.066-9.406-.271-2.063.729-2.683.856-3.573.32 1.623.978 2.146 3.087 1.168 4.711z" fill="#f39e22"/><path d="m35.888 127.515c-.314-.271-.593-.553-.847-.842.254.289.533.571.847.842z" fill="#f39e22"/><path d="m35.888 127.515c.387.333.819.651 1.309.947 1.624.979 3.733.456 4.712-1.168.978-1.624.455-3.733-1.168-4.711-.853-.514-1.052-1.109-1.348-3.061-.76 1.203-1.521 2.405-2.26 3.621-.157.259-.309.52-.465.78-.55.912-1.087 1.832-1.627 2.751.254.288.533.57.847.841z" fill="#f9c744"/><path d="m153.578 206.465h.001.001z" fill="#f39e22"/><path d="m146.389 190.254c.978-1.624 3.088-2.146 4.712-1.168-3.763-2.268-7.159-1.066-9.406-.271-2.063.73-2.683.857-3.573.32-.889-.536-1.067-1.144-1.386-3.308-.347-2.358-.871-5.922-4.634-8.189-1.624-.979-3.733-.456-4.712 1.168-.978 1.624-.455 3.733 1.168 4.712.889.536 1.067 1.144 1.386 3.308.347 2.358.871 5.922 4.634 8.19s7.159 1.066 9.406.271c2.063-.73 2.683-.857 3.573-.32-1.623-.979-2.146-3.089-1.168-4.713z" fill="#f39e22"/><path d="m155.735 197.276c.318 2.165.496 2.772 1.386 3.308h.001c-.89-.536-1.068-1.144-1.387-3.308-.301-2.051-.74-5.014-3.325-7.243 2.585 2.229 3.023 5.192 3.325 7.243z" fill="#f39e22"/><path d="m158.29 205.297c.978-1.624.455-3.733-1.168-4.712 0 0 0 0-.001 0h-.001c-.889-.536-1.067-1.144-1.386-3.308-.302-2.051-.74-5.014-3.325-7.243-.387-.333-.819-.651-1.309-.947-1.624-.978-3.733-.455-4.712 1.168s-.455 3.733 1.168 4.712c.89.536 1.068 1.144 1.386 3.309.347 2.358.872 5.921 4.634 8.189h.001c1.626.978 3.735.455 4.713-1.168z" fill="#f9c744"/><path d="m57.555 212.69c-.013.012-.024.027-.037.039.013-.011.024-.026.037-.039z" fill="#f39e22"/><path d="m55.647 220.36c-2.165.318-2.772.496-3.308 1.386.536-.889 1.144-1.067 3.308-1.386 2.051-.301 5.014-.74 7.243-3.325-2.229 2.585-5.192 3.023-7.243 3.325z" fill="#f39e22"/><path d="m46.458 218.204v-.001z" fill="#f39e22"/><path d="m57.908 199.203c-2.268 3.763-1.067 7.159-.272 9.406.73 2.063.857 2.683.32 3.573.978-1.624 3.088-2.147 4.712-1.168s2.147 3.088 1.168 4.711c2.268-3.763 1.067-7.159.272-9.406-.73-2.063-.857-2.683-.32-3.573.536-.889 1.144-1.067 3.308-1.385 2.358-.347 5.922-.871 8.19-4.634.978-1.624.455-3.733-1.168-4.712-1.624-.978-3.733-.455-4.712 1.168-.536.89-1.144 1.067-3.308 1.386-2.359.347-5.922.87-8.19 4.634z" fill="#f39e22"/><path d="m62.668 211.014c-1.624-.979-3.733-.456-4.712 1.168-.123.205-.253.368-.402.508-.013.012-.024.027-.037.039-.499.44-1.246.6-2.87.839-2.358.347-5.922.872-8.19 4.635 0 0 0 .001-.001.001-.978 1.624-.455 3.732 1.169 4.711s3.733.456 4.712-1.168c0 0 0 0 0-.001.536-.89 1.144-1.067 3.308-1.386 2.051-.302 5.014-.74 7.243-3.325.334-.387.652-.819.947-1.31.98-1.623.457-3.732-1.167-4.711z" fill="#f9c744"/><path d="m130.743 104.857c.013-.012.024-.027.037-.039-.013.012-.024.027-.037.039z" fill="#f39e22"/><path d="m141.84 99.344.001-.001-.001.002z" fill="#f39e22"/><path d="m114.181 125.533c1.624.979 3.733.456 4.712-1.168.536-.889 1.144-1.067 3.308-1.385 2.358-.347 5.922-.871 8.19-4.634 2.268-3.764 1.067-7.159.272-9.406-.73-2.063-.857-2.684-.32-3.573-.978 1.624-3.088 2.146-4.712 1.168-1.624-.979-2.147-3.088-1.168-4.712-2.268 3.764-1.067 7.159-.272 9.406.73 2.063.857 2.684.32 3.573-.536.89-1.144 1.067-3.308 1.386-2.358.347-5.922.871-8.19 4.634-.979 1.623-.456 3.732 1.168 4.711z" fill="#f39e22"/><path d="m132.651 97.188c2.165-.319 2.772-.497 3.308-1.386 0 0 0 0 0-.001-.535.89-1.143 1.068-3.308 1.387-2.051.301-5.014.739-7.243 3.325 2.229-2.585 5.192-3.024 7.243-3.325z" fill="#f39e22"/><path d="m125.63 106.534c1.624.978 3.733.455 4.712-1.168.123-.205.253-.369.402-.508.013-.012.024-.027.037-.039.499-.44 1.246-.601 2.87-.839 2.358-.347 5.922-.872 8.19-4.634 0 0 0-.001.001-.001.978-1.624.455-3.732-1.169-4.711-1.624-.978-3.733-.455-4.712 1.168v.001c-.536.889-1.144 1.067-3.308 1.386-2.051.301-5.014.74-7.243 3.325-.334.387-.652.819-.947 1.309-.98 1.622-.457 3.732 1.167 4.711z" fill="#f9c744"/><path d="m92.014 209.182c1.869-1.479 4.693-3.715 4.775-8.108.036-1.895-1.472-3.46-3.368-3.496-1.895-.036-3.461 1.472-3.496 3.368-.019 1.038-.457 1.496-2.172 2.854-1.869 1.479-4.693 3.715-4.775 8.108s2.656 6.733 4.468 8.282c1.664 1.421 2.084 1.896 2.064 2.934.036-1.896 1.601-3.403 3.496-3.368 1.895.036 3.403 1.601 3.368 3.497.082-4.393-2.656-6.733-4.468-8.282-1.664-1.421-2.084-1.896-2.064-2.934.019-1.039.457-1.497 2.172-2.855z" fill="#f39e22"/><path d="m82.562 234.087v-.001z" fill="#f39e22"/><path d="m91.599 231.36c-1.715 1.358-2.153 1.816-2.172 2.854v.001c.019-1.038.456-1.496 2.172-2.855 1.869-1.479 4.693-3.715 4.775-8.108-.082 4.393-2.907 6.628-4.775 8.108z" fill="#f39e22"/><path d="m93.006 219.755c-1.895-.035-3.461 1.472-3.496 3.368-.019 1.039-.457 1.497-2.173 2.855-1.869 1.479-4.693 3.715-4.775 8.108v.001c-.035 1.895 1.472 3.46 3.367 3.496s3.461-1.472 3.496-3.367c0 0 0 0 0-.001 0 0 0 0 0-.001.019-1.038.457-1.496 2.172-2.854 1.869-1.479 4.693-3.715 4.775-8.108.037-1.896-1.47-3.461-3.366-3.497z" fill="#f9c744"/><path d="m105.736 83.461v-.001z" fill="#f39e22"/><path d="m94.876 119.971c1.895.035 3.461-1.473 3.496-3.368.019-1.039.457-1.497 2.172-2.854 1.869-1.479 4.693-3.715 4.775-8.108s-2.656-6.733-4.468-8.282c-1.664-1.422-2.084-1.896-2.064-2.935-.036 1.896-1.601 3.403-3.496 3.368s-3.403-1.601-3.368-3.496c-.082 4.393 2.656 6.733 4.468 8.282 1.664 1.422 2.084 1.896 2.064 2.934s-.457 1.497-2.172 2.854c-1.869 1.479-4.693 3.715-4.775 8.108-.035 1.896 1.473 3.461 3.368 3.497z" fill="#f39e22"/><path d="m96.7 86.188c1.715-1.358 2.153-1.816 2.172-2.854 0 0 0 0 0-.001-.019 1.038-.457 1.496-2.172 2.855-1.869 1.479-4.693 3.715-4.775 8.108.082-4.393 2.906-6.629 4.775-8.108z" fill="#f39e22"/><path d="m95.292 97.792c1.895.036 3.461-1.472 3.496-3.368.019-1.039.457-1.497 2.173-2.855 1.869-1.479 4.693-3.715 4.775-8.108 0 0 0 0 0-.001.035-1.895-1.472-3.46-3.367-3.496s-3.461 1.472-3.496 3.368v.001c-.019 1.039-.457 1.496-2.172 2.854-1.869 1.479-4.693 3.715-4.775 8.108-.037 1.896 1.471 3.461 3.366 3.497z" fill="#f9c744"/><path d="m123.65 212.157c1.659-.917 3.748-.315 4.665 1.344-2.125-3.846-5.667-4.503-8.01-4.938-2.151-.399-2.752-.6-3.255-1.509-.502-.909-.352-1.524.454-3.558.879-2.216 2.207-5.564.081-9.41-.917-1.659-3.005-2.261-4.665-1.344-1.659.917-2.261 3.005-1.344 4.665.502.909.352 1.524-.454 3.558-.879 2.215-2.207 5.563-.081 9.409 2.125 3.846 5.667 4.503 8.01 4.938 2.151.399 2.752.6 3.255 1.509-.917-1.659-.315-3.747 1.344-4.664z" fill="#f39e22"/><path d="m121.771 229.789v.002l.001.001z" fill="#f39e22"/><path d="m128.233 222.911c-.807 2.034-.957 2.649-.454 3.558-.502-.909-.352-1.525.454-3.558.802-2.021 1.969-4.987.555-8.411 1.414 3.424.247 6.389-.555 8.411z" fill="#f39e22"/><path d="m126.436 231.134c1.659-.917 2.261-3.005 1.344-4.665 0 0 0 0 0-.001-.502-.909-.352-1.524.454-3.558.802-2.021 1.968-4.987.555-8.411-.136-.33-.287-.662-.474-.999-.917-1.659-3.005-2.261-4.665-1.344-1.659.917-2.261 3.005-1.344 4.665.503.909.353 1.524-.454 3.559-.879 2.215-2.206 5.563-.081 9.409 0 .001.001.002.001.002.918 1.659 3.005 2.26 4.664 1.343z" fill="#f9c744"/><path d="m65.834 100.396c.042.108.095.217.158.331-.063-.115-.115-.224-.158-.331z" fill="#f39e22"/><path d="m60.065 94.637c.807-2.034.957-2.649.454-3.558.502.908.352 1.524-.454 3.558-.824 2.077-2.043 5.149-.44 8.694-1.602-3.544-.384-6.617.44-8.694z" fill="#f39e22"/><path d="m66.527 87.757-.001-.001.002.002z" fill="#f39e22"/><path d="m64.648 105.391c-1.659.917-3.748.315-4.665-1.344 2.125 3.846 5.667 4.503 8.01 4.938 2.151.399 2.752.6 3.255 1.509.502.909.352 1.524-.454 3.558-.879 2.215-2.207 5.563-.081 9.409.917 1.659 3.005 2.261 4.665 1.344 1.659-.917 2.261-3.005 1.344-4.665-.502-.909-.352-1.524.454-3.558.879-2.216 2.207-5.564.081-9.41-2.125-3.846-5.667-4.503-8.01-4.938-2.151-.399-2.752-.6-3.255-1.509.917 1.66.315 3.749-1.344 4.666z" fill="#f39e22"/><path d="m60.519 91.079c.503.91.353 1.525-.454 3.559-.824 2.077-2.042 5.15-.44 8.694.107.236.226.475.359.715.917 1.659 3.005 2.261 4.665 1.344 1.659-.917 2.261-3.005 1.344-4.665-.063-.114-.115-.223-.158-.331-.297-.755-.094-1.448.612-3.228.879-2.216 2.206-5.564.081-9.409 0 0-.001-.001-.001-.002-.454-.82-1.194-1.379-2.026-1.626-1.38 1.554-2.74 3.125-4.082 4.712.035.078.057.159.1.237 0-.001 0-.001 0 0z" fill="#f9c744"/><path d="m40.766 188.275c.917 1.659.315 3.748-1.344 4.665 3.846-2.125 4.503-5.667 4.938-8.01.399-2.151.6-2.752 1.509-3.255.909-.502 1.524-.352 3.558.455 2.216.878 5.564 2.207 9.409.081 1.659-.917 2.261-3.005 1.344-4.664s-3.005-2.261-4.665-1.344c-.909.502-1.524.352-3.558-.454-2.216-.879-5.564-2.207-9.409-.082-3.846 2.125-4.503 5.667-4.938 8.01-.399 2.151-.6 2.752-1.509 3.254 1.66-.917 3.748-.315 4.665 1.344z" fill="#f39e22"/><path d="m30.013 192.858c-2.034-.807-2.649-.957-3.558-.454 0 0 0 0-.001 0 .909-.502 1.525-.352 3.559.454 2.077.824 5.15 2.042 8.694.44-3.545 1.602-6.617.384-8.694-.44z" fill="#f39e22"/><path d="m23.133 186.396h-.001z" fill="#f39e22"/><path d="m35.771 187.089c.108-.042.217-.095.331-.158-.114.063-.223.115-.331.158z" fill="#f39e22"/><path d="m21.789 191.061c.917 1.659 3.005 2.261 4.665 1.344h.001.001c.909-.502 1.524-.353 3.558.454 2.077.824 5.15 2.042 8.694.44.236-.107.475-.226.715-.359 1.659-.917 2.261-3.005 1.344-4.665s-3.005-2.261-4.665-1.344c-.114.063-.223.116-.331.158-.755.297-1.448.094-3.228-.612-2.216-.878-5.564-2.206-9.41-.081 0 0-.001 0-.001.001-1.659.916-2.26 3.004-1.343 4.664z" fill="#f9c744"/><path d="m152.527 130.459c-.108.042-.217.095-.331.158.115-.063.224-.116.331-.158z" fill="#f39e22"/><path d="m165.166 131.152.001-.001-.002.001z" fill="#f39e22"/><path d="m147.532 129.273c-.917-1.66-.315-3.748 1.344-4.665-3.846 2.125-4.503 5.667-4.938 8.01-.399 2.151-.6 2.752-1.509 3.254s-1.524.353-3.558-.454c-2.216-.879-5.564-2.207-9.409-.082-1.659.917-2.261 3.005-1.344 4.665s3.005 2.261 4.665 1.344c.909-.502 1.524-.353 3.558.454 2.216.878 5.564 2.207 9.409.082 3.846-2.125 4.503-5.667 4.938-8.01.399-2.152.6-2.752 1.509-3.255-1.659.918-3.748.316-4.665-1.343z" fill="#f39e22"/><path d="m148.876 124.608c3.846-2.125 7.194-.797 9.409.081 2.034.807 2.649.957 3.558.455h.001c-.909.502-1.525.352-3.558-.454-2.216-.879-5.564-2.207-9.41-.082z" fill="#f39e22"/><path d="m158.286 124.689c-2.216-.878-5.564-2.207-9.409-.081-1.659.917-2.261 3.005-1.344 4.665.917 1.659 3.005 2.261 4.665 1.344.114-.063.223-.115.331-.158.755-.297 1.448-.094 3.228.612 2.216.878 5.564 2.206 9.409.082.001 0 .002-.001.003-.001 1.658-.917 2.259-3.005 1.343-4.664-.917-1.659-3.005-2.261-4.665-1.344 0 0 0 0-.001 0s0 0-.001 0c-.91.502-1.525.352-3.559-.455z" fill="#f9c744"/><path d="m259.5 171.691c0-75.861 0-121.651 60.145-121.651 20.982 0 34.928 4.562 37.948 25.612 1.316-.355 2.694-.562 4.122-.562.989 0 1.953.103 2.893.276-3.773-28.233-24.572-32.327-44.963-32.327-31.2 0-49.94 11.484-58.975 36.144-8.169 22.295-8.169 53.279-8.169 92.508v78.247 6.062c0 35.539-30.826 43.321-42.703 43.321-1.933 0-3.5 1.567-3.5 3.5s1.567 3.5 3.5 3.5c7.823 0 19.854-2.599 30.163-9.894 8.121-5.747 17.659-16.333 19.293-34.794.16-1.803.247-3.678.247-5.634v-84.308z" fill="#fad98f"/><path d="m354.707 154.179v-19.688h-12.363-1.607s-2.623 8.509-5.669 16.894c1.209-.098 2.427-.162 3.661-.162 5.632 0 11.016 1.053 15.978 2.956z" fill="#daab42"/><path d="m368.723 134.491v28.307c.922.837 1.803 1.718 2.652 2.628h2.316c4.822 0 8.731 3.909 8.731 8.731 0 2.139-.771 4.095-2.048 5.613 1.933 4.996 3.005 10.422 3.005 16.101 0 20.684-14.068 38.077-33.156 43.148 3.668.975 7.518 1.5 11.492 1.5 14.743 0 27.812-7.149 35.943-18.166-5.469-7.41-8.706-16.567-8.706-26.483 0-9.636 3.063-18.55 8.253-25.846-.903-1.479-1.818-2.947-2.723-4.41-4.376-7.076-11.784-31.124-11.784-31.124h-12.064-1.911z" fill="#daab42"/><path d="m397.657 222.354c5.469-7.41 8.706-16.567 8.706-26.483 0-9.834-4.377-18.011-9.159-25.846-5.19 7.296-8.253 16.21-8.253 25.846 0 9.917 3.237 19.074 8.706 26.483z" fill="#c4983d"/><path d="m371.375 165.426c-.849-.911-1.73-1.792-2.652-2.628v2.628z" fill="#f9c744"/><path d="m383.378 195.872c0-5.679-1.071-11.105-3.005-16.101-1.602 1.905-4 3.118-6.683 3.118h-1.277-14.563-8.111c-2.877 0-5.422-1.398-7.013-3.545 1.028 2.578 1.825 5.271 2.361 8.06 8.856 1.289 15.665 8.893 15.665 18.106 0 10.118-8.202 18.32-18.32 18.32-1.98 0-3.883-.323-5.669-.904-1.589 2.083-3.356 4.023-5.28 5.795 5.243 4.828 11.643 8.414 18.739 10.299 19.088-5.072 33.156-22.464 33.156-43.148z" fill="#f9c744"/><path d="m341.183 175.901c-.114-.563-.175-1.146-.175-1.744 0-.86.129-1.688.361-2.474 1.067-3.616 4.408-6.257 8.37-6.257h4.968v-11.248c-4.962-1.903-10.346-2.956-15.977-2.956-1.234 0-2.453.064-3.661.162-1.445 3.978-2.986 7.925-4.387 10.925 4.32 3.793 7.901 8.402 10.501 13.592z" fill="#f9c744"/><path d="m336.764 222.925c-7.341-2.389-12.651-9.278-12.651-17.416 0-10.118 8.202-18.32 18.32-18.32.904 0 1.786.087 2.655.214-.536-2.789-1.333-5.482-2.361-8.06-.745-1.005-1.286-2.17-1.543-3.441-2.601-5.19-6.181-9.799-10.502-13.591-.61 1.307-1.195 2.435-1.733 3.305-5.7 9.215-11.883 18.566-11.883 30.256 0 12.995 5.556 24.689 14.417 32.849 1.925-1.773 3.691-3.713 5.281-5.796z" fill="#f8d07a"/><path d="m324.113 205.509c0 8.138 5.31 15.027 12.651 17.416 1.786.581 3.689.904 5.669.904 10.118 0 18.32-8.202 18.32-18.32 0-9.213-6.809-16.817-15.665-18.106-.869-.126-1.751-.214-2.655-.214-10.118 0-18.32 8.202-18.32 18.32z" fill="#fbd9a3"/><path d="m361.715 165.426h-7.008-4.968c-3.962 0-7.303 2.641-8.37 6.257h8.111 14.563c4.822 0 8.731 3.909 8.731 8.731 0 .86-.129 1.689-.361 2.474h1.277c2.683 0 5.082-1.213 6.683-3.118 1.276-1.518 2.048-3.475 2.048-5.613 0-4.822-3.909-8.731-8.731-8.731h-2.316-2.652v-2.628-28.307h-7.008v30.935z" fill="#bf5e39"/><path d="m357.592 75.652c-.661.179-1.311.386-1.935.645 4.106 1.705 7.324 5.093 8.825 9.301 5.213.698 9.811 3.321 13.046 7.149v-1.842c0-7.745-5.571-14.178-12.922-15.538-.939-.174-1.903-.276-2.893-.276-1.427 0-2.804.206-4.121.561z" fill="#2e3140"/><path d="m361.715 85.392c.941 0 1.861.084 2.768.206-1.501-4.208-4.719-7.596-8.825-9.301-5.727 2.377-9.758 8.02-9.758 14.608v1.842c3.798-4.494 9.469-7.355 15.815-7.355z" fill="#3e4e60"/><path d="m354.707 154.179v11.247h7.008v-30.935h-6.33-.678z" fill="#dd5e26"/><path d="m364.043 171.684h-14.563c4.822 0 8.731 3.909 8.731 8.731 0 .86-.129 1.689-.361 2.474h14.563c.232-.785.361-1.614.361-2.474 0-4.822-3.909-8.731-8.731-8.731z" fill="#dd5e26"/><path d="m349.48 171.684h-8.111c-.232.785-.361 1.614-.361 2.474 0 .598.061 1.181.175 1.744.258 1.271.799 2.436 1.543 3.441 1.591 2.147 4.135 3.545 7.013 3.545h8.111c.232-.785.361-1.614.361-2.474 0-4.821-3.909-8.73-8.731-8.73z" fill="#ea792e"/><path d="m340.177 134.491h.561 1.607c-2.373 0-4.296-1.924-4.296-4.296s1.923-4.296 4.296-4.296h13.041c2.373 0 4.296 1.923 4.296 4.296s-1.923 4.296-4.296 4.296h6.33 7.008 1.91c-3.226 0-5.841-2.615-5.841-5.841s2.615-5.841 5.841-5.841h-15.926-26.185v-.407c-.007.138-.027.264-.027.407-.002 6.452 5.229 11.682 11.681 11.682z" fill="#c1b7d3"/><path d="m364.483 85.598c-.908-.122-1.827-.206-2.768-.206-6.345 0-12.016 2.861-15.815 7.355-3.047 3.605-4.891 8.26-4.891 13.351 0 0 .08 2.46-.318 3.985-.122.467-.287.85-.515 1.043-4.811 4.081-11.366 5.196-11.655 11.275v.407h26.185s1.787-12.807 10.978-20.29h-5.323-2.742-4.281c-2.373 0-4.296-1.923-4.296-4.296s1.923-4.296 4.296-4.296h4.281 2.742 18.078c-.293-.402-.59-.8-.911-1.18-3.234-3.827-7.832-6.45-13.045-7.148z" fill="#aea7b9"/><path d="m354.707 122.809h15.926 24.302c0-6.452-6.762-7.51-11.682-11.683-.228-.193-.393-.576-.515-1.043-.398-1.525-.318-3.985-.318-3.985 0-1.223-.127-2.414-.33-3.579h-16.406c-9.19 7.483-10.977 20.29-10.977 20.29z" fill="#9f90ae"/><path d="m364.792 128.65c0 3.226 2.615 5.841 5.841 5.841h12.064.556c6.452 0 11.682-5.23 11.682-11.683h-24.302c-3.226.001-5.841 2.616-5.841 5.842z" fill="#aea7b9"/><path d="m353.324 98.223c0-2.373 1.923-4.296 4.296-4.296h-4.281c-2.373 0-4.296 1.923-4.296 4.296s1.923 4.296 4.296 4.296h4.281c-2.373 0-4.296-1.923-4.296-4.296z" fill="#c1b7d3"/><path d="m360.362 93.927c2.373 0 4.296 1.923 4.296 4.296s-1.923 4.296-4.296 4.296h5.323 16.406c-.554-3.173-1.827-6.091-3.65-8.592z" fill="#c1b7d3"/><path d="m364.658 98.223c0-2.373-1.923-4.296-4.296-4.296h-2.742c-2.373 0-4.296 1.923-4.296 4.296s1.923 4.296 4.296 4.296h2.742c2.372 0 4.296-1.923 4.296-4.296z" fill="#ebd9ea"/><path d="m355.385 134.491c2.373 0 4.296-1.924 4.296-4.296s-1.923-4.296-4.296-4.296h-13.041c-2.373 0-4.296 1.923-4.296 4.296s1.923 4.296 4.296 4.296h12.363z" fill="#ebd9ea"/></g></svg>