<svg id="Capa_1" enable-background="new 0 0 510.15 510.15" height="512" viewBox="0 0 510.15 510.15" width="512" xmlns="http://www.w3.org/2000/svg"><g id="XMLID_72_"><path id="XMLID_3311_" d="m378.943 0h68.615v67.513h-68.615z" fill="#7c8388"/><path id="XMLID_3622_" d="m413.251 0h34.307v67.513h-34.307z" fill="#575f64"/><path id="XMLID_3309_" d="m444.043 116.534-29.404 10-29.404-10c-14.549 0-26.344-11.795-26.344-26.344v-1.346c0-14.549 11.795-26.344 26.344-26.344h58.807c14.549 0 26.344 11.795 26.344 26.344v1.346c.001 14.549-11.794 26.344-26.343 26.344z" fill="#d6d6da"/><path id="XMLID_102_" d="m444.043 62.5h-30.792v63.562l1.388.472 29.404-10c14.549 0 26.344-11.794 26.344-26.344v-1.346c0-14.549-11.795-26.344-26.344-26.344z" fill="#babac0"/><path id="XMLID_3321_" d="m444.043 170.568-29.404 10-29.404-10c-14.549 0-26.344-11.795-26.344-26.344v-1.346c0-14.549 11.795-26.344 26.344-26.344h58.807c14.549 0 26.344 11.795 26.344 26.344v1.346c.001 14.549-11.794 26.344-26.343 26.344z" fill="#e6ecf2"/><path id="XMLID_3623_" d="m444.043 116.534h-30.792v63.562l1.388.472 29.404-10c14.549 0 26.344-11.795 26.344-26.344v-1.346c0-14.55-11.795-26.344-26.344-26.344z" fill="#d6d6da"/><path id="XMLID_3332_" d="m444.043 224.602h-58.807c-14.549 0-26.344-11.795-26.344-26.344v-1.346c0-14.549 11.795-26.344 26.344-26.344h58.807c14.549 0 26.344 11.795 26.344 26.344v1.346c0 14.549-11.795 26.344-26.344 26.344z" fill="#d6d6da"/><path id="XMLID_3621_" d="m444.043 170.568h-30.792v54.034h30.792c14.549 0 26.344-11.795 26.344-26.344v-1.346c0-14.55-11.795-26.344-26.344-26.344z" fill="#babac0"/><path id="XMLID_4381_" d="m260.558 209.602h249v90.797h-249z" fill="#7c8388"/><path id="XMLID_4346_" d="m192.059 170.943h98.499v168.596h-98.499z" fill="#f93"/><path id="XMLID_3522_" d="m222.061 40v430.49c0 6.84-1.74 13.29-4.8 18.92-6.74 12.35-19.84 20.74-34.87 20.74h-142.13c-15.06 0-28.2-8.44-34.91-20.84-3.04-5.61-4.76-12.02-4.76-18.82v-430.49c0-21.87 17.8-39.67 39.67-39.67h142.13c21.88 0 39.67 17.8 39.67 39.67z" fill="#7c8388"/><g fill="#575f64"><path id="XMLID_4340_" d="m182.391.33h-71.065v509.82h71.065c15.03 0 28.13-8.39 34.87-20.74 3.06-5.63 4.8-12.08 4.8-18.92v-430.49c0-21.87-17.79-39.67-39.67-39.67z"/><path id="XMLID_3281_" d="m96.327.667h30v509.482h-30z"/><path id="XMLID_3492_" d="m70.361 425.49-65.01 63.82c-3.04-5.61-4.76-12.02-4.76-18.82v-18.54l48.76-47.87z"/><path id="XMLID_3491_" d="m70.371 335.02-69.78 68.61v-42.07l48.75-47.93z"/><path id="XMLID_3490_" d="m70.391 244.55-69.8 68.81v-42.12l48.74-48.05z"/><path id="XMLID_3489_" d="m70.371 154.12-69.78 68.51v-42.04l48.76-47.88z"/><path id="XMLID_3488_" d="m70.361 63.67-69.77 68.42v-42.02l48.76-47.82z"/></g><path id="XMLID_3485_" d="m222.061 452.04v18.45c0 6.84-1.74 13.29-4.8 18.92l-64.99-63.93 21.04-21.39z" fill="#32393f"/><path id="XMLID_3476_" d="m222.061 361.56v42.07l-69.78-68.61 21.03-21.39z" fill="#32393f"/><path id="XMLID_3473_" d="m222.061 271.16v42.09l-69.79-68.69 21.05-21.38z" fill="#32393f"/><path id="XMLID_3472_" d="m222.061 180.6v42.05l-69.78-68.54 21.03-21.4z" fill="#32393f"/><path id="XMLID_3471_" d="m222.061 90v41.99l-69.76-68.32 20.991-21.43z" fill="#32393f"/><path id="XMLID_4329_" d="m111.326.667h15.001v509.482h-15.001z" fill="#32393f"/><path id="XMLID_3646_" d="m413.251 209.602h96.308v90.797h-96.308z" fill="#575f64"/></g></svg>